<svg width="106" height="48" viewBox="0 0 106 48" fill="none" xmlns="http://www.w3.org/2000/svg">
<path d="M1.69447 40.6672L0.924255 44.6723C0.82156 44.9804 0.82156 45.2371 0.82156 45.5452C0.82156 46.4181 1.33503 46.8289 2.0539 46.8289C2.97815 46.8289 3.64567 46.2127 3.90241 44.6723L4.72397 40.6672H5.54553L4.77532 44.6723C4.41588 46.6749 3.44028 47.4964 2.00255 47.4964C0.82156 47.4964 0 46.8803 0 45.4939L0.0513475 44.5183L0.770212 40.6159H1.69447V40.6672ZM6.72652 47.4964L7.34269 44.0561C7.49673 43.4913 7.49673 43.0292 7.59943 42.6184H8.31829L8.16425 43.5427C8.57503 42.8238 9.24255 42.4644 9.96141 42.4644C10.5262 42.4644 11.1424 42.8238 11.1424 43.7994L11.0911 44.621L10.5262 47.3937H9.65333L10.1668 44.621L10.2181 43.9534C10.2181 43.4913 10.0128 43.1319 9.44794 43.1319C8.88311 43.1319 8.01021 43.7994 7.80482 45.0317L7.34269 47.3937H6.72652V47.4964ZM12.9396 47.4964L13.8638 42.6184H14.7367L13.8125 47.4964H12.9396ZM14.0179 41.232C14.0179 40.9753 14.3259 40.6672 14.5827 40.6672C14.8908 40.6672 15.0962 40.8726 15.0962 41.1807C15.0962 41.5401 14.8908 41.7455 14.5313 41.7455C14.2233 41.7455 14.0179 41.5401 14.0179 41.232ZM18.3311 41.3347L18.1257 42.6184H19.2553L19.1013 43.2346H17.9716L17.5608 45.5966C17.4581 45.9047 17.4581 46.11 17.4581 46.4181C17.4581 46.6749 17.6122 46.8289 17.9203 46.8289H18.2797L18.177 47.4964L17.5608 47.5478C16.842 47.5478 16.5339 47.137 16.5339 46.6235L16.5852 45.6993L17.0987 43.2346H16.3798L16.5339 42.6184H17.2528L17.4581 41.5401L18.3311 41.3347ZM23.7225 47.1883C23.3631 47.3937 22.7469 47.5478 22.1308 47.5478C20.8471 47.5478 20.2823 46.6749 20.2823 45.5966C20.2823 44.1588 21.3606 42.4644 22.901 42.4644C23.8252 42.4644 24.3387 43.0292 24.3387 43.6967C24.3387 44.9804 22.901 45.3398 21.1038 45.2371C21.0525 45.4939 21.1038 45.9047 21.2065 46.2127C21.4119 46.6235 21.7713 46.8289 22.2848 46.8289C22.8496 46.8289 23.2604 46.6235 23.5685 46.4695L23.7225 47.1883ZM22.7469 43.1319C21.9767 43.1319 21.4119 43.9021 21.2065 44.621C22.4902 44.621 23.4658 44.4669 23.4658 43.6967C23.4658 43.3373 23.2091 43.1319 22.7469 43.1319ZM30.8085 40.3078L29.7302 45.9047C29.6275 46.4181 29.5248 46.983 29.5248 47.3937H28.7032L28.8573 46.4695C28.4465 47.1883 27.779 47.5478 27.1628 47.5478C26.1872 47.5478 25.7251 46.7776 25.7251 45.7506C25.7251 44.0561 27.0088 42.4644 28.7032 42.4644C29.0113 42.4644 29.3708 42.5157 29.5762 42.6184L29.9869 40.3078H30.8085ZM29.4221 43.3373C29.2681 43.1832 29.0113 43.1319 28.6519 43.1319C27.5223 43.1319 26.5466 44.3129 26.5466 45.5966C26.5466 46.2127 26.8034 46.8289 27.5223 46.8289C28.1384 46.8289 28.96 46.11 29.1654 45.0317L29.4221 43.3373ZM35.7892 40.7699C36.2513 40.6672 36.7648 40.6159 37.2269 40.6159C37.9458 40.6159 38.4593 40.7699 38.8187 41.078C39.1268 41.3861 39.3322 41.7455 39.3322 42.1563C39.3322 43.0292 38.6133 43.6967 37.8944 43.9021C38.562 44.1075 39.0241 44.621 39.0241 45.3912C39.0241 46.11 38.6647 46.6235 38.2539 46.983C37.7404 47.3937 36.9702 47.5478 36.0459 47.5478L34.6082 47.4964L35.7892 40.7699ZM35.5325 46.7776L36.2513 46.8289C37.2269 46.8289 38.2025 46.4181 38.2025 45.3398C38.2025 44.5183 37.535 44.1588 36.7648 44.1588H36.0973L35.5325 46.7776ZM36.1486 43.5427H36.8161C37.7404 43.5427 38.562 43.0292 38.562 42.259C38.562 41.5915 38.0485 41.3347 37.3296 41.3347L36.6108 41.3861L36.1486 43.5427ZM43.8507 47.4964L44.0048 46.2641C43.4913 47.2397 42.7725 47.5991 42.1049 47.5991C41.2834 47.5991 40.7699 46.8803 40.7699 46.0587C40.7699 44.3129 42.0022 42.6184 44.1075 42.6184C44.5696 42.6184 45.1344 42.6698 45.4425 42.8238L44.929 45.3398C44.775 46.2127 44.7237 47.0343 44.7237 47.5478H43.8507V47.4964ZM44.4156 43.1832L43.8507 43.1319C42.6184 43.1319 41.5401 44.4156 41.5401 45.7506C41.5401 46.3154 41.7455 46.8289 42.413 46.8289C43.1319 46.8289 43.9021 45.9047 44.1075 44.621L44.4156 43.1832ZM46.7776 47.4964L47.4451 44.0561L47.6505 42.6184H48.3693L48.2153 43.5427C48.6261 42.8238 49.2936 42.4644 50.0124 42.4644C50.5773 42.4644 51.2448 42.8238 51.2448 43.7994L51.1421 44.621L50.5773 47.3937H49.7044L50.2178 44.621L50.2692 43.9534C50.2692 43.4913 50.0638 43.1319 49.499 43.1319C48.9342 43.1319 48.0612 43.7994 47.8559 45.0317L47.4451 47.3937H46.7776V47.4964ZM53.0933 47.4964L54.4283 40.4105H55.2499L54.377 44.8264C54.531 44.6723 54.7364 44.4669 54.7878 44.3129L56.5336 42.6184H57.5092L55.4039 44.621L56.7903 47.4964H55.8661L54.7364 45.1344L54.0689 45.6993L53.7095 47.5478H53.0933V47.4964ZM61.4116 47.4964L62.1818 43.2346H61.5656L61.6683 42.6184H62.3358L62.3872 42.3103C62.5412 41.5915 62.7466 41.0266 63.2088 40.6159C63.4655 40.3078 63.9276 40.1537 64.3384 40.1537C64.6978 40.1537 64.9032 40.2564 65.0059 40.3078L64.7492 40.9753C64.6465 40.8726 64.4924 40.8726 64.287 40.8726C63.6195 40.8726 63.2601 41.5401 63.1061 42.3103V42.6184H64.1844L64.0303 43.2346H63.0034L62.1818 47.4964H61.4116ZM69.6272 44.5183C69.6272 46.0587 68.5489 47.5991 66.9058 47.5991C65.7248 47.5991 65.0573 46.6749 65.0573 45.5966C65.0573 44.0561 66.1869 42.5157 67.7787 42.5157C69.0624 42.4644 69.6272 43.4913 69.6272 44.5183ZM65.9302 45.5452C65.9302 46.3154 66.341 46.8803 67.0598 46.8803C68.0868 46.8803 68.8056 45.5966 68.8056 44.5183C68.8056 43.9534 68.4975 43.1832 67.6246 43.1832C66.649 43.1319 65.9302 44.4156 65.9302 45.5452ZM71.1676 47.4964L71.7324 44.3129C71.8865 43.6967 71.9378 43.0292 71.9892 42.6184H72.708L72.6053 43.6967C72.8621 43.0292 73.4269 42.5157 74.0944 42.5157H74.2998L74.1458 43.3373H73.9404C73.2215 43.3373 72.6053 44.1588 72.3486 45.3398L71.9378 47.4964H71.1676ZM79.3832 45.3398L78.3049 47.4964H77.432L80.975 40.7699H81.9506L82.9262 47.4964H82.0533L81.7452 45.3398H79.3832ZM81.6938 44.621L81.3858 42.6698C81.3344 42.3103 81.3344 41.7969 81.2317 41.4374L80.6669 42.6698L79.6913 44.621H81.6938ZM84.6207 47.4964L85.3909 43.2346H84.7747L84.9287 42.6184H85.5449L85.6476 42.3103C85.7503 41.5915 86.007 41.0266 86.4178 40.6159C86.6746 40.3078 87.1367 40.1537 87.5475 40.1537C87.9069 40.1537 88.1123 40.2564 88.215 40.3078L88.0096 40.9753C87.8555 40.8726 87.7015 40.8726 87.4961 40.8726C86.8286 40.8726 86.4692 41.5401 86.3665 42.3103L86.2638 42.5157H87.3421L87.188 43.1832H86.1097L85.3395 47.3937H84.6207V47.4964ZM88.2663 47.4964L88.8311 44.3129L89.1392 42.6184H89.8581L89.7041 43.6967C90.0121 43.0292 90.577 42.5157 91.1931 42.5157H91.4499L91.2958 43.3373H91.0904C90.3716 43.3373 89.7041 44.1588 89.4987 45.3398L89.0879 47.4964H88.2663ZM92.3741 47.4964L93.2984 42.6184H94.1713L93.247 47.4964H92.3741ZM93.4524 41.232C93.4524 40.9753 93.6578 40.6672 94.0172 40.6672C94.274 40.6672 94.5307 40.8726 94.5307 41.1807C94.5307 41.5401 94.274 41.7455 93.9145 41.7455C93.6578 41.7455 93.4524 41.5401 93.4524 41.232ZM98.8952 47.2397C98.5872 47.3937 98.0737 47.5478 97.4575 47.5478C96.1738 47.5478 95.609 46.6749 95.609 45.6993C95.609 44.0561 96.79 42.5157 98.5358 42.5157C98.9466 42.5157 99.4087 42.6698 99.5114 42.7725L99.306 43.3886C99.1006 43.3373 98.8952 43.1832 98.5358 43.1832C97.2521 43.1832 96.4306 44.4156 96.4306 45.5452C96.4306 46.3154 96.8927 46.8289 97.6629 46.8289C98.1764 46.8289 98.5358 46.6749 98.7926 46.5208L98.8952 47.2397ZM103.773 47.4964L103.876 46.2641C103.414 47.2397 102.695 47.5991 102.027 47.5991C101.155 47.5991 100.692 46.8803 100.692 46.0587C100.692 44.3129 101.873 42.6184 104.03 42.6184C104.492 42.6184 105.057 42.6698 105.314 42.8238L104.852 45.3398C104.698 46.2127 104.595 47.0343 104.595 47.5478H103.773V47.4964ZM104.338 43.1832L103.773 43.1319C102.541 43.1319 101.463 44.4156 101.463 45.7506C101.463 46.3154 101.668 46.8289 102.336 46.8289C103.054 46.8289 103.825 45.9047 104.03 44.621L104.338 43.1832ZM20.8984 11.9126L17.8176 26.1872C16.8933 29.2681 15.1989 31.4247 11.6045 31.5787C8.52368 31.5787 7.29134 29.5248 8.06155 25.2116L10.783 11.9126H6.26439L3.1322 27.1628C2.56737 33.0164 6.00766 34.6596 11.2451 34.5055C16.2258 34.3515 19.6661 32.0922 21.6173 27.5736L25.0576 11.9126H20.8984ZM58.9469 19.1013L60.7441 26.4953H54.0689L58.9469 19.1013ZM60.3333 11.9126L45.1858 33.992H49.2936L52.169 29.7302H61.617L62.5412 33.992H67.4192L62.0278 11.9126H60.3333ZM75.07 34.1461H83.7477C91.5526 33.7866 93.247 30.2437 90.731 24.3387L81.2317 5.80227L75.07 34.1461ZM96.3792 0C88.5744 0.359432 86.9313 3.95376 89.4473 9.80737L98.8952 28.3438L105.057 0H96.3792ZM31.0139 31.2193L32.6057 23.7739H34.4028C37.0215 23.7739 39.2295 24.6981 39.2295 27.1628C39.2295 30.141 36.3027 31.3733 33.0164 31.3733L31.0139 31.2193ZM34.4542 14.7367H36.6108C38.9727 14.7367 40.4105 15.3016 40.4105 17.2014C40.4105 19.4607 38.2539 20.8984 35.019 20.8984H33.2218L34.4542 14.7367ZM31.0139 11.9126L30.6544 11.964L26.0845 34.0947H34.8649C37.8431 34.0947 39.5376 33.2732 40.6672 32.6057C42.4644 31.4247 43.7481 29.5248 44.2102 27.2142C44.775 24.082 42.6184 22.4389 39.9483 22.1821C42.6698 21.5659 44.9804 19.5634 45.1344 16.6879C45.4939 11.9126 40.1024 11.9126 40.1024 11.9126H31.0139Z" fill="#D71920"/>
</svg>
