<svg width="93" height="47" viewBox="0 0 93 47" fill="none" xmlns="http://www.w3.org/2000/svg">
<path d="M46.2588 0C20.7109 0 0 10.4087 0 23.2479C0 36.0873 20.7109 46.4958 46.2588 46.4958C71.8066 46.4958 92.5176 36.0872 92.5176 23.2479C92.5176 10.4085 71.8066 0 46.2588 0ZM46.2588 42.8257C22.7275 42.8257 3.65164 34.0605 3.65164 23.2479C3.65164 12.4354 22.7277 3.67018 46.2588 3.67018C69.7901 3.67018 88.866 12.4354 88.866 23.2479C88.866 34.0605 69.7899 42.8257 46.2588 42.8257ZM40.425 19.1694V15.4984H53.4752V19.1694H48.777V30.9974H45.124V19.1694H40.425ZM69.2276 15.4984V30.9976H65.5761L58.9531 21.7711V30.9976H55.3015V15.4984H58.9529L65.5759 24.725V15.4984H69.2276ZM23.1813 30.9976V15.4984H26.8329L30.8899 21.7711L34.9469 15.4984H38.5971V30.9976H34.9469V22.2309L32.1772 26.5101H29.6026L26.8329 22.2309V30.9976H23.1813Z" fill="#FFC10E"/>
</svg>
