<svg width="126" height="35" viewBox="0 0 126 35" fill="none" xmlns="http://www.w3.org/2000/svg">
<path d="M123.681 8.85522C123.961 8.85721 124.235 8.9293 124.48 9.06491C124.736 9.2023 124.948 9.41111 125.088 9.66602C125.229 9.9147 125.304 10.1958 125.305 10.4819C125.304 10.7653 125.23 11.0438 125.09 11.2902C124.951 11.5443 124.743 11.7533 124.489 11.8925C124.242 12.0324 123.964 12.106 123.68 12.106C123.397 12.106 123.118 12.0324 122.871 11.8925C122.617 11.753 122.408 11.5441 122.269 11.2902C122.127 11.043 122.052 10.7631 122.052 10.4781C122.052 10.1931 122.127 9.91313 122.269 9.66602C122.409 9.41075 122.621 9.20186 122.878 9.06491C123.123 8.92837 123.4 8.85624 123.681 8.85522ZM123.681 9.12464C123.448 9.12654 123.22 9.18685 123.017 9.30002C122.803 9.41477 122.626 9.58911 122.509 9.802C122.39 10.0078 122.328 10.2412 122.328 10.4787C122.328 10.7163 122.39 10.9497 122.509 11.1554C122.627 11.3679 122.803 11.5422 123.017 11.6574C123.222 11.7756 123.455 11.8379 123.692 11.8379C123.928 11.8379 124.161 11.7756 124.366 11.6574C124.58 11.5429 124.757 11.3685 124.874 11.1554C124.991 10.9502 125.053 10.7181 125.053 10.4819C125.052 10.2434 124.99 10.0092 124.872 9.802C124.754 9.58911 124.578 9.41477 124.363 9.30002C124.154 9.18425 123.919 9.12387 123.681 9.12464ZM122.968 11.3842V9.63044H123.568C123.718 9.62348 123.869 9.6402 124.014 9.68C124.104 9.70996 124.181 9.76952 124.234 9.84902C124.286 9.92331 124.315 10.012 124.316 10.1032C124.317 10.1653 124.305 10.2268 124.281 10.2842C124.258 10.3416 124.223 10.3937 124.179 10.4374C124.083 10.535 123.953 10.5923 123.815 10.5975C123.871 10.6183 123.921 10.6498 123.964 10.6903C124.062 10.7961 124.147 10.9124 124.218 11.0373L124.432 11.3791H124.086L123.931 11.1033C123.858 10.9511 123.758 10.8133 123.636 10.6967C123.57 10.6518 123.49 10.6303 123.41 10.6357H123.245V11.3842H122.968ZM123.25 10.3993H123.592C123.708 10.4109 123.826 10.3856 123.927 10.3269C123.956 10.3035 123.979 10.2738 123.995 10.2401C124.01 10.2063 124.017 10.1695 124.016 10.1324C124.017 10.0828 124.002 10.0342 123.973 9.9939C123.943 9.95204 123.902 9.92014 123.854 9.9024C123.761 9.87682 123.666 9.86652 123.57 9.8719H123.25V10.3993Z" fill="#58595B"/>
<path d="M19.9254 9.76006C22.6206 9.76006 24.8055 7.5752 24.8055 4.88003C24.8055 2.18486 22.6206 0 19.9254 0C17.2303 0 15.0454 2.18486 15.0454 4.88003C15.0454 7.5752 17.2303 9.76006 19.9254 9.76006Z" fill="#F16522"/>
<path d="M26.8374 31.2297C29.5326 31.2297 31.7175 29.0448 31.7175 26.3496C31.7175 23.6545 29.5326 21.4696 26.8374 21.4696C24.1423 21.4696 21.9574 23.6545 21.9574 26.3496C21.9574 29.0448 24.1423 31.2297 26.8374 31.2297Z" fill="#F16522"/>
<path d="M4.88003 26.6762C7.5752 26.6762 9.76007 24.4913 9.76007 21.7962C9.76007 19.101 7.5752 16.9161 4.88003 16.9161C2.18486 16.9161 0 19.101 0 21.7962C0 24.4913 2.18486 26.6762 4.88003 26.6762Z" fill="#F16522"/>
<path d="M5.53066 15.1268C7.28252 15.1268 8.70269 13.7066 8.70269 11.9547C8.70269 10.2029 7.28252 8.78271 5.53066 8.78271C3.7788 8.78271 2.35864 10.2029 2.35864 11.9547C2.35864 13.7066 3.7788 15.1268 5.53066 15.1268Z" fill="#F6921E"/>
<path d="M28.2202 13.8267C29.9721 13.8267 31.3923 12.4065 31.3923 10.6547C31.3923 8.90283 29.9721 7.48267 28.2202 7.48267C26.4684 7.48267 25.0482 8.90283 25.0482 10.6547C25.0482 12.4065 26.4684 13.8267 28.2202 13.8267Z" fill="#F6921E"/>
<path d="M17.8107 33.6696C19.5626 33.6696 20.9827 32.2494 20.9827 30.4976C20.9827 28.7457 19.5626 27.3256 17.8107 27.3256C16.0588 27.3256 14.6387 28.7457 14.6387 30.4976C14.6387 32.2494 16.0588 33.6696 17.8107 33.6696Z" fill="#F6921E"/>
<path d="M10.3281 30.9042C11.5409 30.9042 12.5241 29.9211 12.5241 28.7082C12.5241 27.4954 11.5409 26.5122 10.3281 26.5122C9.11527 26.5122 8.13208 27.4954 8.13208 28.7082C8.13208 29.9211 9.11527 30.9042 10.3281 30.9042Z" fill="#FFC10E"/>
<path d="M30.3348 20.0069C31.5476 20.0069 32.5308 19.0237 32.5308 17.8109C32.5308 16.5981 31.5476 15.6149 30.3348 15.6149C29.122 15.6149 28.1388 16.5981 28.1388 17.8109C28.1388 19.0237 29.122 20.0069 30.3348 20.0069Z" fill="#FFC10E"/>
<path d="M10.816 8.6214C12.0288 8.6214 13.012 7.63821 13.012 6.42538C13.012 5.21256 12.0288 4.22937 10.816 4.22937C9.60318 4.22937 8.62 5.21256 8.62 6.42538C8.62 7.63821 9.60318 8.6214 10.816 8.6214Z" fill="#FFC10E"/>
<path d="M47.7163 34.1322V9.46261H50.3533V12.58C50.9786 11.3837 51.8046 10.4653 52.8314 9.8248C53.8602 9.18385 55.0507 8.85049 56.2627 8.86405C58.5985 8.86405 60.4747 9.67992 61.8913 11.3117C63.3078 12.9434 64.0157 15.1068 64.0149 17.8019C64.0149 20.5452 63.3218 22.7238 61.9358 24.3378C60.5497 25.9518 58.6951 26.7596 56.372 26.7613C55.0376 26.7613 53.8752 26.45 52.8848 25.8272C51.8944 25.2045 51.0862 24.2768 50.4601 23.0441V34.1322H47.7163ZM50.3851 17.7968C50.3851 19.6607 50.8866 21.1535 51.8898 22.2752C52.8929 23.397 54.2217 23.9604 55.8764 23.9655C57.4912 23.9655 58.762 23.4516 59.6889 22.4239C60.6158 21.3962 61.0788 19.9699 61.0779 18.145C61.0779 16.1023 60.6149 14.5011 59.6889 13.3412C58.7629 12.1814 57.4738 11.601 55.8217 11.6002C54.1341 11.6002 52.8065 12.1509 51.8389 13.2523C50.8714 14.3537 50.388 15.8702 50.3889 17.8019L50.3851 17.7968Z" fill="#58595B"/>
<path d="M81.8904 9.46264V26.0509H79.2V23.0416C78.551 24.2497 77.722 25.1715 76.713 25.8069C75.6994 26.4432 74.5241 26.7745 73.3275 26.7613C71.0027 26.7613 69.1294 25.9425 67.7078 24.3048C66.2861 22.6671 65.5753 20.4995 65.5753 17.8019C65.5753 15.0704 66.2658 12.8977 67.6468 11.2838C69.0278 9.66979 70.8743 8.86492 73.1864 8.86916C74.542 8.86916 75.7188 9.18051 76.7168 9.80323C77.7148 10.4259 78.5197 11.3532 79.1314 12.5851V9.46264H81.8904ZM79.2 17.9112C79.2 16.038 78.7014 14.5299 77.7042 13.387C76.707 12.2441 75.4061 11.6731 73.8015 11.6739C72.1384 11.6739 70.8404 12.1996 69.9076 13.251C68.9748 14.3024 68.5088 15.7711 68.5097 17.657C68.5097 19.6633 68.9786 21.2103 69.9165 22.2981C70.8544 23.386 72.185 23.9299 73.9082 23.9299C75.5603 23.9299 76.8553 23.4012 77.7932 22.3439C78.7311 21.2866 79.2 19.809 79.2 17.9112Z" fill="#58595B"/>
<path d="M100.878 9.46265V25.7612C100.878 27.5616 100.76 28.843 100.525 29.6055C100.289 30.3648 99.8904 31.0635 99.3568 31.6528C98.5977 32.4901 97.6472 33.1311 96.5864 33.521C95.4952 33.9285 94.2417 34.1322 92.826 34.1322C90.369 34.1322 88.4543 33.5582 87.0818 32.4102C85.7093 31.2623 84.9925 29.6364 84.9315 27.5328H88.0463V27.7501C88.0463 28.9955 88.4653 29.9567 89.3032 30.6336C90.1411 31.3105 91.3272 31.6494 92.8616 31.6503C93.9706 31.6503 94.9178 31.466 95.7032 31.0975C96.4598 30.7537 97.0883 30.1794 97.4989 29.4568C97.7572 29.0164 97.9365 28.5343 98.0288 28.0322C98.1356 27.4883 98.1885 26.7088 98.1877 25.6938V22.898C97.5624 24.0841 96.7427 24.9936 95.7286 25.6265C94.7041 26.2634 93.5188 26.5937 92.3126 26.5784C89.9869 26.5784 88.1137 25.7684 86.6929 24.1485C85.2721 22.5286 84.5613 20.3771 84.5604 17.6939C84.5604 14.9828 85.2505 12.8346 86.6306 11.2495C88.0108 9.66429 89.8573 8.86959 92.1702 8.86536C93.5156 8.86536 94.6958 9.17671 95.7108 9.79943C96.7258 10.4221 97.5281 11.3376 98.1178 12.5457V9.46265H100.878ZM98.1877 17.8019C98.1877 15.938 97.6925 14.4393 96.702 13.3057C95.7116 12.1721 94.4078 11.604 92.7904 11.6015C91.1264 11.6015 89.8285 12.1272 88.8965 13.1786C87.9646 14.23 87.4986 15.6987 87.4986 17.5846C87.4986 19.5917 87.9676 21.1387 88.9054 22.2257C89.8433 23.3127 91.1743 23.8566 92.8984 23.8575C94.5505 23.8575 95.8455 23.3229 96.7834 22.2537C97.7213 21.1845 98.1894 19.7006 98.1877 17.8019Z" fill="#58595B"/>
<path d="M119.937 9.46264V26.0509H117.247V23.0416C116.598 24.2506 115.769 25.1724 114.757 25.8069C113.743 26.4432 112.568 26.7745 111.371 26.7613C109.046 26.7613 107.173 25.9425 105.752 24.3048C104.331 22.6671 103.62 20.4995 103.619 17.8019C103.619 15.0704 104.309 12.8977 105.689 11.2838C107.07 9.66979 108.916 8.86492 111.229 8.86916C112.585 8.86916 113.762 9.18051 114.761 9.80323C115.76 10.4259 116.564 11.3532 117.175 12.5851V9.46264H119.937ZM117.247 17.9112C117.247 16.038 116.748 14.5299 115.752 13.387C114.756 12.2441 113.455 11.6731 111.849 11.6739C110.185 11.6739 108.887 12.1996 107.955 13.251C107.023 14.3024 106.557 15.7711 106.557 17.657C106.557 19.6633 107.026 21.2103 107.964 22.2981C108.902 23.386 110.234 23.9299 111.961 23.9299C113.613 23.9299 114.908 23.4012 115.846 22.3439C116.784 21.2866 117.251 19.809 117.247 17.9112Z" fill="#58595B"/>
</svg>
