<svg width="57" height="65" viewBox="0 0 57 65" fill="none" xmlns="http://www.w3.org/2000/svg">
<path d="M35.961 0C38.1667 0.0306531 40.2711 0.449135 42.2363 1.44869C43.9688 2.33564 45.3815 3.57575 46.3458 5.285C46.9724 6.41335 47.3835 7.64854 47.5579 8.92739C47.9164 11.3823 47.5539 13.7573 46.7443 16.0796C46.2685 17.4416 45.6101 18.7191 44.8971 19.9738C43.4444 22.5281 41.5779 24.7417 39.4068 26.7042C36.6215 29.2244 33.5671 31.4303 30.2989 33.282C29.0327 33.997 27.72 34.5974 26.308 34.9646C25.4429 35.1982 24.5498 35.3112 23.6538 35.3004C22.4743 35.2764 21.5514 34.7393 20.8337 33.8344C20.171 33.0222 19.8295 31.995 19.8741 30.9477C19.8819 30.6563 19.924 30.3669 19.9994 30.0854C20.4266 28.5681 21.007 27.1147 21.8746 25.7893C22.5376 24.7771 23.3279 23.8781 24.3615 23.2351C25.511 22.5194 26.7604 22.2135 28.1118 22.5087C28.5343 22.6078 28.9319 22.7926 29.28 23.0518C30.1696 23.6875 30.1229 24.6851 29.6958 25.3222C29.3299 25.8758 28.9208 26.3996 28.4723 26.8888C27.7127 27.7071 26.9057 28.4808 26.118 29.2724C25.421 29.9728 24.766 30.7078 24.2349 31.5454C23.9597 31.9799 23.7058 32.423 23.6298 32.9448C23.5338 33.5992 23.8737 34.045 24.5341 34.1063C24.8757 34.1342 25.2196 34.0996 25.549 34.0043C26.5638 33.7238 27.5061 33.2713 28.4317 32.7835C29.8591 32.0285 31.1765 31.1056 32.4606 30.132C34.0172 28.9519 35.5305 27.7211 36.9253 26.3524C38.5139 24.795 39.9299 23.1025 41.0135 21.1493C41.8051 19.7233 42.3882 18.2173 42.6474 16.602C42.8766 15.1793 42.7487 13.7932 42.0896 12.4872C41.7723 11.8416 41.2759 11.301 40.6596 10.9298C40.3751 10.7585 40.0612 10.6415 39.734 10.5847C38.5432 10.3734 37.3911 10.5467 36.2589 10.9245C35.0787 11.319 33.9839 11.8947 32.9197 12.5238C30.6101 13.8939 28.2977 15.2633 26.0967 16.8059C24.9932 17.5789 23.9237 18.4012 22.8422 19.2049C21.8652 19.9312 20.895 20.6662 19.8275 21.2599C18.9612 21.7533 18.0235 22.1091 17.048 22.3148C15.8392 22.56 14.7251 22.3321 13.7015 21.6751C12.6393 20.9934 11.8957 20.0578 11.5691 18.8197C11.3612 18.038 11.4432 17.263 11.6224 16.4914C11.8843 15.3586 12.3814 14.3323 13.0012 13.3594C14.5338 10.9565 16.461 8.91806 18.702 7.1755C22.0232 4.59331 25.6776 2.60485 29.6305 1.16615C31.66 0.423794 33.8002 0.0295322 35.961 0Z" fill="#E20010"/>
<path d="M8.63702 54.9384C8.6257 54.1841 8.53973 53.5057 8.10393 52.9173C7.8917 52.633 7.5979 52.4201 7.26163 52.3069C6.39535 51.9964 5.51307 52.033 4.65278 52.2989C3.96309 52.5122 3.29805 52.8027 2.62301 53.0619C2.48974 53.1112 2.36846 53.1745 2.2072 53.2465C1.88934 52.4582 1.57681 51.6932 1.24962 50.8935C1.72341 50.669 2.16988 50.4397 2.63034 50.2432C3.69121 49.7894 4.79139 49.4782 5.94821 49.4082C7.10503 49.3382 8.24653 49.3995 9.2994 49.9606C10.4902 50.591 11.3498 51.5013 11.7097 52.826C11.7616 52.9994 11.7927 53.1784 11.8023 53.3591C11.8483 55.079 11.9102 56.7989 11.9176 58.5188C11.9222 59.6943 11.8449 60.8705 11.8103 62.0466C11.8041 62.2079 11.7369 62.3608 11.6224 62.4744C10.7994 63.3807 9.79251 64.0071 8.65168 64.4276C7.42835 64.8739 6.12557 65.0612 4.82604 64.9773C3.62657 64.9107 2.59103 64.4196 1.71541 63.6046C0.839801 62.7896 0.228072 61.8054 0.0574804 60.5993C-0.17575 58.9473 0.300706 57.5139 1.48818 56.3345C2.25184 55.5761 3.19276 55.1843 4.25296 55.0457C5.42578 54.8931 6.60259 54.9338 7.7794 54.9371L8.63702 54.9384ZM8.48309 57.6239C8.41397 57.6103 8.3441 57.6007 8.27385 57.5952C7.87403 57.5872 7.46954 57.5733 7.06772 57.5793C6.58593 57.5866 6.10214 57.5886 5.62302 57.6339C5.12791 57.6812 4.64745 57.8258 4.26362 58.1563C3.62657 58.7054 3.43732 59.4224 3.59259 60.2307C3.78583 61.2303 4.34425 61.9287 5.33981 62.2259C5.85314 62.3794 6.39669 62.4023 6.92112 62.2925C7.40857 62.2033 7.86323 61.9852 8.23787 61.6608C8.30129 61.6116 8.35344 61.5494 8.39079 61.4783C8.42815 61.4073 8.44985 61.3291 8.45444 61.249C8.46976 60.8978 8.51508 60.5473 8.51774 60.1961C8.52308 59.3918 8.51108 58.5875 8.50442 57.7832C8.50042 57.7297 8.4933 57.6765 8.48309 57.6239Z" fill="#E20010"/>
<path d="M48.7172 57.5572C45.8585 57.5572 43.0531 57.4959 40.2083 57.5706C40.223 57.7705 40.2317 57.9597 40.2496 58.1443C40.3229 58.8993 40.4855 59.633 40.8047 60.3253C41.0529 60.8901 41.4382 61.3839 41.9256 61.762C42.6986 62.3491 43.5808 62.4451 44.5064 62.3258C45.2714 62.2272 45.9838 61.9473 46.6941 61.6654C47.02 61.5368 47.3432 61.3989 47.6937 61.2556C48.0269 61.9526 48.3534 62.6377 48.6932 63.3427C48.6306 63.388 48.572 63.4386 48.5067 63.476C47.1206 64.2983 45.6319 64.828 44.024 64.968C42.558 65.0952 41.1586 64.8547 39.8925 64.0437C39.0302 63.4913 38.4265 62.711 37.9213 61.838C37.2992 60.7519 36.9226 59.5428 36.8178 58.2956C36.6064 56.0215 37.0893 53.9042 38.2665 51.9437C39.0875 50.581 40.313 49.8406 41.8469 49.5854C43.257 49.3375 44.7094 49.5792 45.9631 50.2705C46.6655 50.651 47.1546 51.25 47.5578 51.9217C48.0908 52.8073 48.3714 53.7836 48.506 54.7951C48.6153 55.6108 48.6499 56.4364 48.7152 57.2607C48.7232 57.3453 48.7172 57.4333 48.7172 57.5572ZM45.2521 54.9684C45.0862 54.208 44.9729 53.4311 44.4751 52.7867C44.2255 52.4664 43.8748 52.24 43.4802 52.1443C42.4307 51.8664 41.3758 52.3502 40.9247 53.3438C40.7634 53.6976 40.6688 54.0821 40.5515 54.4546C40.4989 54.6232 40.4649 54.7985 40.4229 54.9684C40.7048 55.043 44.9636 55.0463 45.2534 54.9704L45.2521 54.9684Z" fill="#E20010"/>
<path d="M29.9635 45.9431L33.3746 45.4153V49.6048C34.1316 49.6501 34.8527 49.6008 35.5777 49.6787V52.2596C34.8447 52.2716 34.127 52.2496 33.3786 52.2949C33.3786 52.4402 33.3786 52.5488 33.3786 52.6574C33.3724 55.1417 33.3671 57.6261 33.3626 60.1108C33.3626 60.502 33.394 60.8938 33.4293 61.2836C33.4853 61.8833 33.8178 62.2638 34.3989 62.4098C34.7194 62.4911 35.0486 62.5371 35.3738 62.599L35.7003 62.6657V64.856C35.6636 64.8742 35.6246 64.8872 35.5843 64.8947C34.6161 64.938 33.6519 64.9127 32.7156 64.6281C31.8013 64.3523 31.039 63.8525 30.5219 63.0288C30.228 62.5624 30.0788 62.0379 30.0141 61.4962C29.9751 61.1569 29.9559 60.8155 29.9568 60.474C29.9568 55.7561 29.9595 51.0386 29.9648 46.3216L29.9635 45.9431Z" fill="#E20010"/>
<path d="M50.5925 45.9458L53.8911 45.374V45.8292C53.8911 50.1139 53.8929 54.3987 53.8964 58.6835C53.8964 59.4678 53.9031 60.2521 53.9091 61.0371C53.9144 61.8114 54.1969 62.2059 54.9366 62.4365C55.188 62.506 55.4432 62.5607 55.7009 62.6004C55.8582 62.6297 56.0175 62.6437 56.2087 62.6671V64.9047C56.191 64.9195 56.1699 64.9297 56.1474 64.9347C55.2105 64.9727 54.2776 64.9574 53.3666 64.6908C52.8147 64.5319 52.3007 64.2626 51.856 63.8992C51.0277 63.2215 50.6905 62.3132 50.6039 61.289C50.5785 60.9891 50.5819 60.6859 50.5825 60.3847C50.5825 55.6975 50.5859 51.0106 50.5925 46.3243V45.9458Z" fill="#E20010"/>
<path d="M23.3318 64.7067H19.9999C19.9959 64.5674 19.9892 64.4402 19.9886 64.3142C19.985 62.3124 19.9821 60.3107 19.9799 58.3089C19.9759 56.7096 19.9659 55.1103 19.9666 53.511C19.9676 53.221 19.9899 52.9315 20.0332 52.6447C20.0825 52.3175 20.2538 52.045 20.4917 51.8151C21.8004 50.541 23.3684 49.7773 25.1563 49.4481C26.2768 49.2427 27.4251 49.2411 28.5461 49.4435C28.6054 49.4541 28.6647 49.4674 28.7227 49.4821C28.7514 49.4894 28.7787 49.5034 28.834 49.5248C28.4555 50.487 27.9944 51.4066 27.5599 52.3155C27.0408 52.3155 26.549 52.3002 26.0586 52.3189C25.2116 52.347 24.3802 52.5541 23.619 52.9266C23.4031 53.0325 23.3224 53.1645 23.3231 53.413C23.3324 57.0559 23.3347 60.6987 23.3298 64.3415L23.3318 64.7067Z" fill="#E20010"/>
<path d="M17.5425 49.746C17.5778 54.7384 17.5392 59.7016 17.5712 64.6954H14.3106C14.3026 64.5748 14.2866 64.4488 14.2866 64.3229C14.2866 61.1843 14.2866 58.0452 14.2866 54.9057C14.2866 53.467 14.2986 52.0283 14.3046 50.5896C14.3046 50.4803 14.3046 50.371 14.3046 50.2338L17.5425 49.746Z" fill="#E20010"/>
<path d="M15.7765 48.2767C14.1846 48.2727 13.1877 46.6881 13.848 45.1921C14.2539 44.2745 14.9509 43.926 15.9564 43.932C17.3038 43.9433 18.3027 45.2834 17.9815 46.5928C17.725 47.639 16.8854 48.2794 15.7765 48.2767Z" fill="#E20010"/>
</svg>
