<svg width="63" height="54" viewBox="0 0 63 54" fill="none" xmlns="http://www.w3.org/2000/svg">
<path d="M26.4066 0.0386732V0H49.3735V0.0402508L26.4066 0.0386732Z" fill="#E4B935"/>
<path d="M26.4068 0.0386963H49.3736C49.2 0.873711 49.0295 1.70951 48.8519 2.54374C48.1721 5.73595 47.4902 8.92711 46.8062 12.1172C46.53 13.4139 46.2538 14.7114 45.9744 16.0066C45.9388 16.1644 45.9546 16.2205 46.1322 16.2228C46.7636 16.2323 47.395 16.2228 48.0264 16.1984C48.3352 16.18 48.6451 16.2001 48.949 16.2584C49.5015 16.3752 49.6554 16.7737 49.3247 17.237C49.1398 17.4781 48.8993 17.6709 48.6238 17.7989C48.0011 18.1202 47.3271 18.2575 46.6413 18.3467C46.3033 18.3985 45.9619 18.4249 45.62 18.4256C45.4874 18.4256 45.4535 18.4872 45.4314 18.5937C45.2209 19.5934 45.0086 20.5952 44.7944 21.5991L42.8458 30.7875C42.8064 30.9737 42.7669 31.1592 42.7298 31.347C42.7109 31.4528 42.673 31.5167 42.5522 31.4946C42.5194 31.4914 42.4864 31.4914 42.4536 31.4946H19.9816C19.7101 31.4946 19.7108 31.4946 19.7693 31.2168C20.8942 25.9194 22.0186 20.6221 23.1425 15.3247C23.3934 14.1429 23.6452 12.9617 23.8978 11.781C23.9197 11.7127 23.9152 11.6386 23.8851 11.5734C23.5497 10.9097 23.4432 10.1891 23.3729 9.46142C23.1938 7.61145 23.6239 5.84434 24.1282 4.09065C24.2742 3.58554 24.8235 3.27458 25.4226 3.34245C25.6428 3.36692 25.7059 3.30693 25.7469 3.09858C25.9466 2.10098 26.1652 1.10733 26.3783 0.112095C26.3856 0.0868228 26.3951 0.0622571 26.4068 0.0386963ZM34.2202 16.3759C34.279 16.3696 34.3383 16.3696 34.397 16.3759C35.1184 16.5401 35.4877 16.1139 35.7798 15.5575C35.8129 15.4936 35.8468 15.4289 35.8753 15.3634C36.0781 14.9016 36.0773 14.9009 35.704 14.5741C35.6794 14.551 35.653 14.5299 35.6251 14.511C35.4617 14.4115 35.4625 14.305 35.5627 14.1424C35.8732 13.6373 36.327 13.236 36.8663 12.9896C37.4055 12.7433 38.0059 12.6629 38.591 12.7589C38.7912 12.786 38.9799 12.8679 39.1364 12.9956C39.6494 13.4068 40.1798 13.7943 40.7212 14.1684C41.2192 14.522 41.739 14.8439 42.2776 15.1321C42.4772 15.2363 42.4883 15.2315 42.4701 15.0169C42.4354 14.6112 42.3952 14.2058 42.3494 13.8007C42.2476 12.8899 41.9721 12.0509 41.3897 11.3193C40.9722 10.7952 40.5752 10.2546 40.149 9.73687C40.1075 9.69229 40.0768 9.63883 40.0591 9.58055C40.0415 9.52228 40.0374 9.46074 40.0472 9.40065C40.1419 8.65403 40.1435 8.64929 39.6778 8.05894C38.6518 6.75828 37.4332 5.64387 36.1878 4.55946C36.1145 4.50386 36.029 4.46653 35.9384 4.45054C35.0774 4.23871 34.1965 4.11782 33.3102 4.08986C32.7956 4.06618 32.3189 4.12301 31.8967 4.4387C31.5518 4.69679 31.1864 4.7394 30.7531 4.66758C29.3546 4.43476 27.9489 4.24376 26.5449 4.04487C26.136 3.98726 25.7312 3.88703 25.3137 3.90755C24.9546 3.92412 24.7549 4.04882 24.6641 4.34479C24.2166 5.80646 23.8749 7.28944 23.9246 8.8324C23.9505 10.2563 24.4219 11.6364 25.2726 12.7786C26.2197 14.0556 27.5014 14.8748 28.967 15.4296C30.6568 16.0674 32.4231 16.2954 34.2163 16.3728L34.2202 16.3759ZM34.0624 26.0623C33.9795 26.1167 33.925 26.153 33.8698 26.1878C33.1855 26.6171 32.502 27.048 31.8138 27.4711C31.6749 27.5563 31.6686 27.6005 31.798 27.7078C32.903 28.6194 34.0032 29.5381 35.1057 30.4536C35.1334 30.4773 35.1586 30.5175 35.217 30.4899C35.2289 30.2863 35.2525 30.0771 35.2494 29.868C35.249 29.6319 35.2988 29.3984 35.3954 29.1829C35.7024 28.4505 35.996 27.7126 36.2975 26.9778C36.3361 26.8877 36.3536 26.79 36.3488 26.6921C36.322 26.0418 36.2967 25.3914 36.277 24.7411C36.2737 24.6234 36.2379 24.509 36.1736 24.4104C35.4759 23.2818 34.7829 22.1508 34.0829 21.023C34.0518 20.9782 34.0317 20.9267 34.024 20.8727C34.0163 20.8188 34.0214 20.7637 34.0387 20.712C34.1555 20.3087 34.2613 19.9023 34.3773 19.4982C34.4211 19.3401 34.4344 19.1751 34.4167 19.012C34.3757 18.5669 34.3378 18.1217 34.307 17.6758C34.2984 17.5274 34.2565 17.4785 34.0995 17.4777C33.0542 17.4785 32.0115 17.3751 30.9867 17.1691C28.3183 16.6167 26.1676 15.2813 24.6333 13.0027C24.6026 12.9578 24.5876 12.893 24.5055 12.8749C24.4968 12.912 24.4873 12.9483 24.4794 12.9846C23.7986 16.2142 23.118 19.4442 22.4377 22.6749C22.3524 23.0782 22.3524 23.0829 22.7581 23.1255C23.0201 23.1531 23.2695 23.2368 23.5473 23.1358C24.893 22.652 26.2473 22.1926 27.5969 21.7152C27.6638 21.6844 27.7381 21.6729 27.8111 21.6821C27.8842 21.6913 27.9533 21.7208 28.0105 21.7672C29.8021 23.0458 31.5973 24.3196 33.3963 25.5887L34.0624 26.0623ZM27.7532 22.4657C27.7532 23.4317 27.7532 24.3844 27.7532 25.3378C27.7549 25.5004 27.7229 25.6616 27.6593 25.8113C27.1384 27.0512 26.6238 28.2943 26.1013 29.5341C26.0716 29.5916 26.0573 29.6557 26.0598 29.7203C26.0623 29.7849 26.0815 29.8477 26.1155 29.9027C26.226 30.0969 26.3239 30.2973 26.4146 30.5017C26.4314 30.5534 26.4654 30.5978 26.5109 30.6274C26.5565 30.657 26.6108 30.6701 26.6648 30.6643C27.9213 30.6572 29.177 30.6643 30.4327 30.6588C30.4871 30.6588 30.5495 30.6841 30.6079 30.6201C30.4926 30.3834 30.3814 30.1379 30.2567 29.9011C30.1927 29.7872 30.1736 29.6535 30.203 29.5263C30.5108 28.022 30.8107 26.5153 31.1232 25.0118C31.1548 24.8626 31.1232 24.7884 31.0049 24.7056C29.9746 23.9884 28.9463 23.2686 27.9197 22.5462C27.8744 22.498 27.8128 22.4682 27.7469 22.4626L27.7532 22.4657ZM45.1283 17.9244C45.2727 17.9244 45.4172 17.9292 45.5616 17.9244C46.4242 17.8897 47.2758 17.7832 48.0966 17.499C48.3492 17.4236 48.582 17.2935 48.7785 17.1178C48.8717 17.0286 48.9561 16.9237 48.9016 16.7887C48.8535 16.6688 48.7233 16.6601 48.6144 16.6593C48.3515 16.6593 48.0872 16.6522 47.8251 16.6759C46.7166 16.7817 45.5982 16.6987 44.5174 16.4304C42.5948 15.9529 40.8814 15.0461 39.2966 13.8812C39.091 13.7205 38.8454 13.6193 38.5863 13.5884C37.8468 13.5094 37.2043 13.6807 36.7261 14.2931C36.6377 14.406 36.6353 14.4778 36.7513 14.5804C37.3614 15.1211 38.0188 15.6058 38.7157 16.0287C40.6809 17.2267 42.8 17.9229 45.122 17.9213L45.1283 17.9244ZM39.2453 17.0705C39.2658 17.2078 39.2848 17.3073 39.295 17.4138C39.3274 17.7532 39.4387 18.0831 39.4047 18.4288C39.3006 19.4887 39.0748 20.5305 38.9359 21.5857C38.8286 22.4073 38.7189 23.2297 38.7631 24.06C38.7986 24.7308 39.0164 25.3354 39.5855 25.734C40.1222 26.1096 40.7117 26.2241 41.3313 25.9044C41.3794 25.8841 41.4199 25.849 41.4469 25.8042C41.4738 25.7593 41.4858 25.7071 41.4812 25.655C41.4787 25.4318 41.4568 25.2092 41.4157 24.9897C41.3881 24.8508 41.3431 24.8145 41.1931 24.8413C40.6359 24.9416 40.2532 24.5406 40.3621 23.9874C40.4576 23.5012 40.6509 23.0482 40.8356 22.5928C41.2847 21.4997 41.8182 20.4437 42.2847 19.3569C42.4038 19.0508 42.4769 18.7287 42.5017 18.4011C42.5143 18.2938 42.5017 18.2386 42.3675 18.2212C42.1467 18.1889 41.9279 18.1436 41.7125 18.0854C40.8485 17.8587 40.0187 17.5174 39.2453 17.0705Z" fill="#DFAC0F"/>
<path d="M34.5777 40.6158C34.809 40.6529 35.0357 40.7143 35.2541 40.7989C35.9708 41.098 36.3527 41.6529 36.3875 42.4097C36.4522 43.8075 35.779 44.8343 34.6677 45.6038C33.9535 46.0957 33.1056 46.3568 32.2384 46.352C31.0885 46.3607 29.9378 46.352 28.7871 46.352C28.4793 46.352 28.4098 46.2652 28.4714 45.9668C29.1675 42.5936 29.8639 39.2204 30.5605 35.8472C30.6315 35.5007 30.7184 35.4329 31.0656 35.4329C31.8083 35.4329 32.551 35.4329 33.2944 35.4329C33.9819 35.4329 34.6598 35.5118 35.2959 35.792C35.9857 36.0958 36.5035 36.5725 36.5777 37.3586C36.6834 38.4801 36.3054 39.4233 35.4017 40.1304C35.1444 40.32 34.8683 40.4827 34.5777 40.6158ZM31.5336 45.0774V45.0655C31.7767 45.0655 32.0198 45.0758 32.2621 45.0655C33.4294 45.0095 34.195 44.3363 34.4057 43.1887C34.5762 42.2558 34.1231 41.6102 33.1926 41.4698C32.6117 41.3837 32.0253 41.4492 31.4421 41.4287C31.3458 41.4287 31.3403 41.4824 31.3269 41.5487C31.2621 41.8699 31.1951 42.1911 31.128 42.5115C30.9638 43.3008 30.8028 44.09 30.6331 44.8793C30.5984 45.0371 30.6284 45.0963 30.8052 45.0845C31.0467 45.0655 31.2906 45.0774 31.5336 45.0774ZM32.1887 40.1517C32.4379 40.1667 32.6879 40.1524 32.9338 40.1091C33.8406 39.9015 34.5328 39.0941 34.6227 38.136C34.6946 37.3744 34.3591 36.9214 33.6133 36.7683C33.2826 36.7004 32.9472 36.7193 32.6141 36.698C32.3852 36.683 32.3079 36.7525 32.2645 36.9806C32.0743 37.9845 31.8636 38.9844 31.6489 39.9844C31.6149 40.1422 31.6623 40.1604 31.7949 40.1517C31.9275 40.143 32.0569 40.1517 32.1887 40.1517Z" fill="white"/>
<path d="M43.7652 39.4446C43.8686 39.1881 43.9641 38.971 44.043 38.7524C44.0652 38.666 44.1178 38.5905 44.1911 38.5396C44.2644 38.4887 44.3536 38.4659 44.4423 38.4754C44.7778 38.4825 45.1132 38.4754 45.4486 38.4754C45.6972 38.4754 45.7698 38.5677 45.7225 38.8053C45.3542 40.6253 44.9859 42.4455 44.6175 44.266C44.5801 44.4129 44.5673 44.5649 44.5797 44.7159C44.6136 44.9685 44.698 45.0576 44.9506 45.0908C45.1085 45.1113 45.1747 45.1981 45.1479 45.3465C45.1029 45.5983 45.0508 45.8493 44.9901 46.0979C44.9771 46.1738 44.9367 46.2423 44.8767 46.2906C44.8167 46.3389 44.7411 46.3635 44.6641 46.3599C44.3483 46.3746 44.032 46.3438 43.7249 46.2683C43.2395 46.1405 42.9743 45.8272 42.9128 45.3213C42.9057 45.2636 42.9033 45.2052 42.8978 45.1374C42.8126 45.1579 42.7826 45.2289 42.7399 45.2778C41.7613 46.3465 40.549 46.7253 39.1363 46.4799C38.1845 46.3141 37.5925 45.7198 37.3794 44.7704C37.1971 43.9614 37.295 43.1627 37.4584 42.3663C37.6509 41.4193 37.9753 40.5266 38.5633 39.739C39.579 38.3665 41.2143 38.0752 42.4582 38.387C43.0335 38.5362 43.4582 38.885 43.7652 39.4446ZM39.1087 43.8209C39.1088 43.9989 39.1241 44.1766 39.1544 44.3521C39.2405 44.8761 39.5293 45.1666 40.0534 45.2542C41.0794 45.4262 42.0612 44.9803 42.5718 44.06C43.0782 43.1333 43.3253 42.0871 43.2869 41.0317C43.2687 40.2851 42.9144 39.8218 42.2861 39.6379C41.9175 39.5368 41.5305 39.522 41.1552 39.5945C40.4906 39.7066 40.1031 40.1517 39.8316 40.7184C39.3612 41.6986 39.1939 42.7507 39.1087 43.8209Z" fill="white"/>
<path d="M58.9856 35.5C58.7673 36.5628 58.5484 37.6236 58.329 38.6822C58.1112 39.7422 57.8941 40.8021 57.6747 41.8692C57.7773 41.8628 57.8105 41.7902 57.8586 41.7429C58.8444 40.7666 59.8317 39.7919 60.8104 38.8085C60.91 38.6998 61.0324 38.6143 61.1688 38.5583C61.3052 38.5022 61.4523 38.4769 61.5996 38.4841C61.9603 38.4975 62.3225 38.4841 62.684 38.4912C62.7629 38.4912 62.8624 38.4699 62.8971 38.5488C62.9318 38.6278 62.8355 38.683 62.7811 38.7335C61.5709 39.8727 60.3571 41.0097 59.1395 42.1446C59.0117 42.2638 59.0117 42.338 59.1024 42.4785C59.857 43.6473 60.602 44.8225 61.3526 45.9953C61.3881 46.0506 61.4236 46.1066 61.4544 46.1634C61.5191 46.2818 61.4836 46.3647 61.3494 46.3655C60.7772 46.3655 60.205 46.371 59.6336 46.3584C59.4623 46.3584 59.3637 46.2187 59.28 46.0758C58.7123 45.1003 58.1425 44.1269 57.5705 43.1556C57.5358 43.0964 57.5192 43.0207 57.4316 42.9796C57.269 43.7689 57.1088 44.5478 56.947 45.3284C56.8965 45.5731 56.8484 45.8177 56.7931 46.0608C56.7379 46.3039 56.6455 46.3694 56.4096 46.371C56.0418 46.371 55.6732 46.371 55.3046 46.371C54.9763 46.371 54.9147 46.2984 54.9802 45.9835C55.1823 45.0072 55.3875 44.0309 55.5895 43.0538C56.0326 40.9223 56.4722 38.794 56.9084 36.6689C56.9152 36.6147 56.936 36.5633 56.9686 36.5196C57.0013 36.4759 57.0447 36.4414 57.0946 36.4195C57.6589 36.1401 58.2185 35.8512 58.7804 35.5679C58.8402 35.5247 58.9119 35.501 58.9856 35.5Z" fill="white"/>
<path d="M49.2632 39.7492C49.5368 39.3828 49.8526 39.0498 50.2039 38.7571C51.0334 38.0784 52.7145 38.1841 53.4943 38.8968C54.1257 39.4753 54.2969 40.2164 54.1604 41.0199C53.9828 42.0609 53.7468 43.0916 53.5408 44.1279C53.4958 44.3528 53.4532 44.5809 53.5156 44.8114C53.559 44.9732 53.6284 45.1034 53.8313 45.1018C54.0017 45.1018 54.068 45.206 54.0396 45.3631C53.9946 45.614 53.9441 45.8658 53.8857 46.1144C53.8723 46.1873 53.8329 46.2529 53.7749 46.299C53.7168 46.3451 53.6441 46.3687 53.57 46.3654C53.2544 46.3827 52.9381 46.3504 52.6324 46.2699C51.9221 46.0702 51.5717 45.5596 51.6064 44.7703C51.6293 44.2344 51.7863 43.723 51.8803 43.2005C52.0081 42.4902 52.222 41.7957 52.2615 41.0696C52.2705 40.9256 52.2705 40.7811 52.2615 40.6371C52.2062 39.84 51.709 39.4596 50.9269 39.5921C50.6826 39.6316 50.4494 39.7224 50.2426 39.8584C50.0359 39.9944 49.8602 40.1727 49.7272 40.3814C49.3752 40.8975 49.2261 41.4863 49.1014 42.0877C48.8293 43.3979 48.5549 44.708 48.2782 46.0181C48.2198 46.2944 48.1259 46.3662 47.8433 46.367C47.4621 46.367 47.0801 46.367 46.6989 46.367C46.4566 46.367 46.3832 46.2675 46.429 46.0292C46.7973 44.2292 47.1672 42.4292 47.5387 40.6292C47.5797 40.4303 47.6286 40.2346 47.5687 40.0262C47.5213 39.8684 47.4361 39.7658 47.253 39.7508C47.0328 39.7326 46.9854 39.6561 47.0296 39.4351C47.0738 39.2141 47.118 38.9971 47.1638 38.7792C47.1738 38.6962 47.2143 38.62 47.2775 38.5652C47.3407 38.5105 47.422 38.4813 47.5055 38.4833C47.8278 38.4626 48.1513 38.4941 48.4637 38.5764C48.9838 38.7271 49.2008 38.9931 49.2529 39.5314C49.2529 39.5882 49.2529 39.645 49.2632 39.7492Z" fill="white"/>
<path d="M3.16827 40.1312H4.36002C4.95195 40.1312 5.54388 40.1312 6.13581 40.1312C6.42072 40.1312 6.48939 40.2148 6.43335 40.4942C6.38915 40.7128 6.3418 40.9307 6.29287 41.1485C6.23052 41.4231 6.13502 41.4989 5.8359 41.4989C4.92827 41.4989 4.02065 41.4989 3.11381 41.4926C2.94097 41.4926 2.86915 41.5257 2.83205 41.7128C2.5574 43.1034 2.26538 44.4901 1.98046 45.8792C1.90154 46.2738 1.8384 46.3275 1.428 46.3275C1.05311 46.3275 0.678221 46.3275 0.304121 46.3275C0.0326229 46.3275 -0.0376197 46.2399 0.017627 45.9731C0.349107 44.3662 0.681377 42.7598 1.01444 41.154C1.37749 39.3993 1.73948 37.6448 2.10043 35.8906C2.18882 35.4612 2.24802 35.4091 2.69157 35.4099L7.82162 35.4194C8.18783 35.4194 8.24308 35.4865 8.1681 35.8361C8.1239 36.0413 8.08207 36.2473 8.03314 36.4517C7.97237 36.7066 7.88239 36.7777 7.62037 36.7777C6.43651 36.7777 5.25265 36.7777 4.06879 36.7777C3.91094 36.7777 3.84465 36.8069 3.8115 36.975C3.6063 38.0207 3.38689 39.0673 3.16827 40.1312Z" fill="white"/>
<path d="M18.6936 46.5256C18.0689 46.5198 17.4493 46.4132 16.8586 46.2099C16.6504 46.1451 16.4609 46.0312 16.3062 45.8776C16.1483 45.7127 16.1483 45.5619 16.2864 45.3851C16.3764 45.2723 16.4766 45.1681 16.5729 45.0592C16.8097 44.7885 16.8492 44.779 17.2043 44.9013C17.6968 45.0671 18.1924 45.217 18.7157 45.2431C19.179 45.2675 19.6344 45.2494 20.0716 45.071C20.2437 45.0035 20.3964 44.8942 20.5157 44.753C20.635 44.6118 20.7173 44.443 20.7551 44.2621C20.8285 43.9771 20.7456 43.7806 20.4954 43.6228C20.2291 43.4665 19.9444 43.344 19.6478 43.2581C19.3116 43.1492 18.9762 43.0316 18.6344 42.9424C17.4111 42.6165 17.1167 41.6939 17.3558 40.6434C17.6408 39.3924 18.6305 38.5124 19.9461 38.3246C20.883 38.1928 21.8079 38.2457 22.6903 38.6348C22.8676 38.7048 23.0313 38.8053 23.1741 38.9315C23.3209 39.072 23.332 39.1888 23.2057 39.3443C23.0478 39.5321 22.8837 39.7089 22.7266 39.8968C22.6477 39.9891 22.5617 39.9828 22.4606 39.9536C22.0763 39.8439 21.7093 39.6758 21.3139 39.604C20.8632 39.525 20.4118 39.4974 19.9666 39.6253C19.7747 39.676 19.599 39.7752 19.4565 39.9134C19.314 40.0516 19.2095 40.2242 19.1529 40.4145C19.0109 40.8368 19.1664 41.1382 19.591 41.2716C20.1166 41.4366 20.6446 41.5928 21.1695 41.7531C21.4348 41.8268 21.69 41.9328 21.9295 42.0688C22.373 42.3332 22.5924 42.7301 22.6185 43.2376C22.6887 44.5998 21.9555 45.6803 20.6044 46.2107C20.0243 46.438 19.4197 46.528 18.6936 46.5256Z" fill="white"/>
<path d="M25.2899 39.6584C25.0492 39.6584 24.8061 39.6584 24.5638 39.6584C24.2828 39.6584 24.2205 39.585 24.2742 39.3159C24.3128 39.1225 24.3531 38.9299 24.3997 38.7389C24.4128 38.6598 24.4547 38.5884 24.5174 38.5384C24.58 38.4884 24.659 38.4634 24.739 38.4682C24.9561 38.4682 25.1739 38.4556 25.3901 38.4682C25.5354 38.4785 25.5796 38.4232 25.6025 38.2891C25.6624 37.9339 25.7398 37.5787 25.8077 37.226C25.8203 37.1612 25.8258 37.102 25.8976 37.0681C26.5472 36.7414 27.1959 36.4115 27.8636 36.0729C27.881 36.2852 27.8123 36.4628 27.7784 36.6427C27.675 37.1952 27.5621 37.7374 27.4453 38.2835C27.4145 38.4264 27.4359 38.4808 27.5992 38.4722C27.8676 38.4587 28.1383 38.4659 28.4074 38.4722C28.6252 38.4761 28.6931 38.555 28.6544 38.7705C28.6158 38.986 28.5692 39.1817 28.5195 39.3853C28.4698 39.5889 28.3435 39.6671 28.1454 39.6655C27.8628 39.6655 27.5795 39.6655 27.297 39.6655C27.1959 39.6655 27.1446 39.6884 27.1225 39.7957C26.8295 41.2637 26.5338 42.7306 26.2354 44.1965C26.1992 44.3647 26.2076 44.5393 26.2599 44.7032C26.2998 44.8156 26.3743 44.9125 26.4727 44.9798C26.5711 45.0472 26.6884 45.0816 26.8076 45.0781C27.3293 45.0915 27.334 45.0963 27.2346 45.61C27.2038 45.7679 27.1691 45.9313 27.132 46.0907C27.1211 46.1636 27.0842 46.2301 27.028 46.2778C26.9718 46.3256 26.9003 46.3513 26.8266 46.3504C26.4067 46.3606 25.9829 46.3882 25.5638 46.314C24.743 46.1672 24.3365 45.6827 24.3223 44.8397C24.3128 44.2873 24.4636 43.7609 24.5717 43.2273C24.8085 42.0569 25.0524 40.8872 25.2923 39.7168C25.2941 39.6973 25.2933 39.6777 25.2899 39.6584Z" fill="white"/>
<path d="M14.393 39.349C14.4694 39.251 14.5508 39.1569 14.6369 39.0672C15.2264 38.5085 15.947 38.3214 16.7378 38.3364C16.8957 38.3364 16.9643 38.3869 16.9217 38.5645C16.8365 38.9149 16.771 39.2701 16.6952 39.6229C16.6281 39.9386 16.5247 39.9906 16.2098 39.952C15.4024 39.8533 14.5193 40.1311 14.2565 41.2937C13.906 42.8485 13.5706 44.4072 13.2304 45.9644C13.1515 46.3361 13.0821 46.393 12.6969 46.3922C12.3489 46.3922 12 46.3922 11.652 46.3922C11.3797 46.3922 11.3126 46.3046 11.3702 46.0362C11.758 44.2336 12.1463 42.4315 12.5351 40.6299C12.5768 40.471 12.5975 40.3073 12.5967 40.143C12.5841 39.8809 12.4893 39.772 12.2265 39.7294C12.0687 39.7042 11.9945 39.6158 12.0253 39.4547C12.0703 39.218 12.1152 38.9812 12.1689 38.7444C12.1799 38.6648 12.2199 38.5919 12.2812 38.5398C12.3425 38.4877 12.4208 38.46 12.5012 38.4619C12.9084 38.4556 13.3165 38.4619 13.7119 38.5826C14.0797 38.6947 14.3054 38.9315 14.337 39.3308L14.393 39.349Z" fill="white"/>
<path d="M7.48858 45.0135C7.50515 44.4508 7.66774 43.9133 7.78455 43.3687C8.10577 41.8692 8.43567 40.3696 8.7632 38.8701C8.82318 38.5946 8.92105 38.5196 9.19728 38.5181C9.56559 38.5181 9.93391 38.5181 10.3022 38.5181C10.5792 38.5181 10.6463 38.597 10.5887 38.8645C10.2009 40.6609 9.81184 42.4566 9.42143 44.2519C9.36799 44.4694 9.34855 44.6938 9.36381 44.9172C9.38749 45.169 9.47667 45.2645 9.71976 45.3008C9.86498 45.3229 9.93206 45.4089 9.9076 45.547C9.86182 45.8059 9.80973 46.0632 9.74975 46.3181C9.73478 46.3863 9.69663 46.4472 9.64179 46.4903C9.58695 46.5335 9.51883 46.5563 9.44905 46.5549C9.05443 46.5675 8.65981 46.5359 8.28887 46.3789C7.73877 46.15 7.47437 45.6875 7.48858 45.0135Z" fill="white"/>
<path d="M35.0615 51.179C35.7276 51.557 35.786 52.3155 35.2193 52.8624C34.8058 53.2649 33.9029 53.3944 33.3899 53.126C33.2703 53.0685 33.1696 52.9779 33.0997 52.8651C33.0298 52.7523 32.9935 52.6218 32.9953 52.4891C32.9797 52.2613 33.0285 52.0337 33.1361 51.8324C33.2437 51.631 33.4058 51.4639 33.6038 51.3502C33.7024 51.2887 33.8105 51.2421 33.9131 51.1924C33.9131 51.1774 33.9131 51.1592 33.9068 51.1561C33.3457 50.8656 33.4704 50.3329 33.764 49.9154C33.9124 49.7196 34.125 49.5824 34.3646 49.5279C34.6325 49.4572 34.9128 49.4464 35.1854 49.4963C35.4474 49.5397 35.6873 49.6486 35.7686 49.9296C35.8183 50.0793 35.8287 50.2392 35.799 50.3941C35.7693 50.5489 35.7004 50.6936 35.599 50.8143C35.4593 50.9785 35.2746 51.0772 35.0615 51.179ZM33.6677 52.2918C33.6618 52.4043 33.6979 52.5149 33.7689 52.6024C33.8399 52.6899 33.9408 52.7479 34.052 52.7653C34.5737 52.8774 35.0781 52.3439 34.9478 51.8182C34.9269 51.7143 34.8706 51.6209 34.7887 51.5537C34.7067 51.4865 34.604 51.4498 34.498 51.4497C34.0536 51.4307 33.6661 51.8222 33.6677 52.2918ZM34.7592 49.9493C34.6838 49.9488 34.609 49.9632 34.5391 49.9916C34.4693 50.02 34.4057 50.0619 34.352 50.1149C34.2984 50.1679 34.2557 50.2309 34.2264 50.3004C34.1972 50.3699 34.1819 50.4445 34.1815 50.5199C34.1783 50.5724 34.1856 50.6249 34.2029 50.6744C34.2203 50.724 34.2474 50.7696 34.2826 50.8085C34.3178 50.8475 34.3604 50.879 34.408 50.9013C34.4555 50.9236 34.5071 50.9361 34.5595 50.9382C34.8476 50.943 35.1515 50.6225 35.1578 50.314C35.1617 50.0977 35.0007 49.9509 34.7592 49.9493Z" fill="white"/>
<path d="M38.7117 50.2066C38.6954 50.0309 38.6217 49.8654 38.5021 49.7358C38.3824 49.6061 38.2233 49.5194 38.0495 49.4892C37.8024 49.4449 37.5481 49.4648 37.3108 49.5468C36.6305 49.7922 36.3834 50.3463 36.3195 51.0005C36.2524 51.7045 36.6612 52.0676 37.3668 51.9855C37.6336 51.9539 37.8175 51.8048 38.0069 51.6304C37.9883 51.8601 37.9156 52.0822 37.7946 52.2783C37.5902 52.6477 37.2847 52.8355 36.8522 52.7629C36.7089 52.7465 36.5675 52.7164 36.43 52.6729C36.1932 52.5838 36.1877 52.7929 36.1206 52.901C36.0369 53.036 36.183 53.0652 36.2603 53.1031C36.913 53.4275 37.6296 53.2878 38.0756 52.6958C38.6343 51.9642 38.8301 51.1158 38.7117 50.2066ZM38.1466 50.5562C38.1177 50.7783 38.0462 50.9927 37.9359 51.1876C37.8112 51.392 37.6399 51.5151 37.3881 51.5033C37.0724 51.4954 36.9343 51.3541 36.9414 50.9927C36.956 50.7783 37.0117 50.5687 37.1056 50.3755C37.1645 50.2426 37.2625 50.1308 37.3865 50.055C37.5704 49.9485 37.7733 49.8909 37.9635 50.0124C38.1537 50.134 38.1821 50.3431 38.1466 50.5562Z" fill="white"/>
<path d="M40.4923 52.3265H39.0954C38.902 52.3265 38.8649 52.2658 38.9533 52.0898C38.9884 52.0272 39.0314 51.9694 39.0812 51.9177C39.7197 51.1853 40.3684 50.4616 40.9943 49.7189C41.1782 49.5003 41.3889 49.5232 41.617 49.535C41.7457 49.5413 41.6959 49.6479 41.6809 49.7173C41.5694 50.2635 41.4568 50.8091 41.3432 51.3542C41.3238 51.4774 41.2974 51.5994 41.2642 51.7196C41.2192 51.8585 41.2808 51.8664 41.3944 51.8727C41.4836 51.8775 41.6423 51.7938 41.6383 51.9911C41.6328 52.2594 41.5744 52.3447 41.3739 52.3234C41.1735 52.3021 41.1032 52.3818 41.0906 52.5601C41.0815 52.625 41.0686 52.6893 41.0519 52.7527C40.9533 53.2357 40.9533 53.2318 40.46 53.205C40.3377 53.1979 40.3156 53.1489 40.3377 53.0471C40.389 52.8159 40.4371 52.5846 40.4923 52.3265ZM40.8617 50.5239L39.737 51.8656C40.0228 51.8656 40.2556 51.8656 40.4884 51.8656C40.5029 51.8676 40.5177 51.8666 40.5318 51.8625C40.5459 51.8585 40.559 51.8516 40.5702 51.8423C40.5815 51.8329 40.5907 51.8213 40.5973 51.8082C40.6039 51.7951 40.6076 51.7808 40.6084 51.7662C40.6873 51.3716 40.7686 50.9754 40.8609 50.5231L40.8617 50.5239Z" fill="white"/>
<path d="M17.9794 53.2483C17.6781 53.2479 17.3797 53.1889 17.1009 53.0747C17.0315 53.0447 16.8949 53.0265 16.9573 52.9168C17.0196 52.8071 17.0307 52.594 17.2533 52.6469C17.558 52.7278 17.8724 52.7666 18.1877 52.7622C18.3535 52.7583 18.5158 52.7147 18.6613 52.6351C19.0283 52.4299 19.0417 52.0384 18.6786 51.8245C18.5 51.7297 18.3155 51.6464 18.1262 51.5751C17.3472 51.2397 17.2027 50.4797 17.8207 49.8909C18.3179 49.4174 18.917 49.3771 19.5507 49.5397C19.6076 49.5547 19.6628 49.5752 19.7188 49.5941C20.0195 49.6975 20.0251 49.7196 19.8609 49.9793C19.8524 49.9983 19.8402 50.0155 19.825 50.0298C19.8098 50.0441 19.7919 50.0552 19.7724 50.0625C19.7529 50.0699 19.7321 50.0733 19.7113 50.0725C19.6904 50.0718 19.6699 50.0669 19.651 50.0582C19.3429 49.9622 19.0191 49.9268 18.6976 49.954C18.5885 49.9608 18.4826 49.9934 18.3886 50.0491C18.2946 50.1048 18.2152 50.1821 18.1569 50.2745C17.9991 50.531 18.0575 50.7638 18.3266 50.8956C18.5089 50.9848 18.7015 51.0535 18.8878 51.1324C19.6912 51.4733 19.8049 52.3699 19.1151 52.9082C18.8278 53.1292 18.4482 53.246 17.9794 53.2483Z" fill="white"/>
<path d="M22.6365 50.9438C22.8204 50.7457 22.9743 50.5586 23.2308 50.5018C23.9261 50.3487 24.406 50.8128 24.2639 51.5089C24.1976 51.8364 24.1273 52.1632 24.0642 52.4915C24.0421 52.6083 24.0287 52.7132 24.1858 52.778C24.3089 52.8285 24.2023 52.9508 24.1984 53.0408C24.1999 53.0604 24.1973 53.0802 24.1908 53.0987C24.1843 53.1173 24.1741 53.1344 24.1606 53.1488C24.1472 53.1631 24.1309 53.1746 24.1128 53.1824C24.0947 53.1901 24.0752 53.1941 24.0555 53.1939C23.6246 53.2428 23.3547 52.9658 23.4305 52.5365C23.4873 52.2137 23.5567 51.8932 23.6199 51.5712C23.6314 51.5193 23.6385 51.4665 23.6412 51.4134C23.6467 51.2263 23.6412 51.0369 23.4431 50.9398C23.2726 50.8554 23.0051 50.9272 22.8519 51.0977C22.6988 51.2682 22.6286 51.4923 22.5812 51.7212C22.4897 52.1576 22.395 52.5933 22.3089 53.0313C22.3081 53.0556 22.3021 53.0793 22.2915 53.1011C22.2808 53.1229 22.2657 53.1422 22.2471 53.1578C22.2285 53.1733 22.2068 53.1848 22.1834 53.1914C22.1601 53.1981 22.1356 53.1997 22.1116 53.1963C21.6499 53.2073 21.6507 53.2113 21.7438 52.759C21.8464 52.2576 21.9483 51.7564 22.0493 51.2555C22.0737 51.1332 22.1085 51.0038 21.9277 50.958C21.8488 50.9375 21.8662 50.8625 21.8867 50.8104C21.923 50.7196 21.878 50.5878 22.0169 50.5484C22.0838 50.5272 22.1544 50.521 22.2239 50.5302C22.2934 50.5393 22.36 50.5636 22.4191 50.6013C22.4782 50.639 22.5283 50.6892 22.5658 50.7484C22.6034 50.8076 22.6275 50.8743 22.6365 50.9438Z" fill="white"/>
<path d="M28.552 52.085C28.3815 52.085 28.2094 52.0937 28.0398 52.085C27.9135 52.0771 27.8819 52.1308 27.8819 52.2428C27.8653 52.658 28.0895 52.8782 28.5007 52.8277C28.6698 52.8064 28.8363 52.7683 28.9979 52.714C29.1234 52.6722 29.17 52.714 29.2197 52.8206C29.2694 52.9271 29.2473 53.0092 29.1408 53.0629C28.8164 53.2276 28.451 53.2939 28.0895 53.2539C27.4778 53.1939 27.2008 52.8395 27.2584 52.2239C27.2832 51.8894 27.3713 51.5626 27.5181 51.261C27.8204 50.6588 28.3862 50.381 29.035 50.5113C29.4122 50.5902 29.6348 50.8372 29.6538 51.2216C29.6601 51.3397 29.6521 51.4581 29.6301 51.5744C29.5512 51.9548 29.3933 52.0834 29.0058 52.0913C28.855 52.0913 28.7035 52.0913 28.5528 52.0913L28.552 52.085ZM27.9861 51.6533H28.8282C28.8605 51.6571 28.8932 51.6517 28.9225 51.6378C28.9518 51.6238 28.9766 51.6018 28.994 51.5744C29.0792 51.4283 29.0389 51.1221 28.915 51.0022C28.7911 50.8822 28.6064 50.8727 28.4233 50.9769C28.1668 51.1213 28.0729 51.3794 27.9861 51.6533Z" fill="white"/>
<path d="M10.3726 35.5158C10.5826 35.5158 10.7925 35.511 11.004 35.5158C11.195 35.5213 11.27 35.6089 11.2337 35.792C11.1516 36.2035 11.0648 36.6133 10.9732 37.0216C10.9251 37.2324 10.8154 37.3184 10.5944 37.32C10.1998 37.32 9.80517 37.32 9.41055 37.32C9.16431 37.316 9.09485 37.2221 9.14773 36.9822C9.22666 36.5978 9.31189 36.2135 9.39792 35.8307C9.44922 35.6018 9.55103 35.5205 9.7807 35.515C9.97722 35.515 10.1753 35.515 10.3711 35.515L10.3726 35.5158Z" fill="white"/>
<path d="M31.9377 50.2879C31.7246 50.3763 31.5336 50.456 31.3411 50.5326C31.2937 50.5515 31.2251 50.5847 31.1959 50.5658C31.139 50.5294 31.184 50.4576 31.1872 50.4008C31.199 50.1956 31.304 50.0764 31.5029 50.0014C31.8643 49.8625 32.2132 49.6976 32.5707 49.5453C32.6228 49.5224 32.6804 49.4663 32.7286 49.4995C32.7767 49.5326 32.7357 49.6092 32.7286 49.6629C32.502 50.7757 32.2716 51.8877 32.0474 53.0006C32.0175 53.1497 31.9512 53.2034 31.7957 53.201C31.3466 53.1947 31.3498 53.201 31.4421 52.763C31.6063 51.9864 31.7657 51.2082 31.9267 50.4308C31.9322 50.3937 31.9314 50.3534 31.9377 50.2879Z" fill="white"/>
<path d="M24.7794 52.3045C24.7875 51.9419 24.8742 51.5854 25.0335 51.2595C25.3626 50.5729 26.2403 50.2643 26.9103 50.6021C26.9956 50.6455 27.1542 50.6676 27.0982 50.8247C27.0342 50.9999 26.8788 51.0748 26.7256 51.0022C26.1219 50.7181 25.6949 51.0756 25.5331 51.5792C25.4461 51.8274 25.4065 52.0898 25.4163 52.3526C25.4368 52.6794 25.6396 52.853 25.9688 52.8262C26.1249 52.8056 26.2781 52.7663 26.4249 52.7094C26.5039 52.6833 26.5749 52.6581 26.6151 52.7678C26.6483 52.8585 26.7122 52.9375 26.6041 53.0298C26.2718 53.3131 25.4147 53.3352 25.073 53.0622C24.8236 52.868 24.7731 52.5965 24.7794 52.3045Z" fill="white"/>
<path d="M20.0992 52.6004C20.1718 52.2382 20.257 51.8112 20.3462 51.3779C20.392 51.153 20.4457 50.9296 20.4851 50.7039C20.4858 50.6796 20.4915 50.6558 20.5021 50.6339C20.5126 50.612 20.5276 50.5926 20.5462 50.5769C20.5648 50.5613 20.5864 50.5497 20.6098 50.543C20.6331 50.5364 20.6576 50.5347 20.6816 50.5382C21.1481 50.5239 21.1457 50.52 21.0526 50.9699C20.9492 51.471 20.8466 51.9714 20.7479 52.4734C20.7243 52.5949 20.7014 52.7101 20.8711 52.7756C20.991 52.8214 20.8892 52.9335 20.8853 53.0211C20.8813 53.1087 20.8576 53.1726 20.7574 53.1924C20.403 53.2618 20.0992 53.0227 20.0992 52.6004Z" fill="white"/>
<path d="M21.0564 49.4119C21.1353 49.4119 21.1961 49.4119 21.2545 49.4119C21.3129 49.4119 21.3658 49.4372 21.354 49.5035C21.3271 49.6511 21.294 49.7971 21.2577 49.9423C21.2435 49.9975 21.193 50.0165 21.1377 50.0267C20.6721 50.1104 20.6184 50.0449 20.7131 49.5879C20.7612 49.3401 20.9396 49.4332 21.0564 49.4119Z" fill="white"/>
<path d="M34.2162 16.3728C32.423 16.2939 30.6567 16.0674 28.9654 15.4257C27.4998 14.8733 26.218 14.0517 25.2709 12.7747C24.4203 11.6325 23.9488 10.2524 23.9229 8.82847C23.8764 7.28551 24.2149 5.80253 24.6624 4.34086C24.7532 4.0449 24.9529 3.9202 25.312 3.90362C25.7295 3.8831 26.1344 3.98255 26.5432 4.04095C27.9473 4.23984 29.3529 4.43083 30.7514 4.66366C31.1839 4.73548 31.5501 4.69286 31.895 4.43478C32.3173 4.11908 32.794 4.06226 33.3086 4.08594C34.1953 4.11591 35.0765 4.23891 35.9375 4.45293C36.0281 4.46892 36.1136 4.50625 36.1869 4.56185C37.4323 5.64626 38.6486 6.76067 39.6769 8.06133C40.1426 8.65011 40.141 8.65484 40.0463 9.40304C40.0365 9.46314 40.0406 9.52467 40.0582 9.58294C40.0759 9.64122 40.1066 9.69468 40.1481 9.73926C40.5743 10.257 40.9713 10.7976 41.3888 11.3217C41.9712 12.0533 42.2467 12.8923 42.3485 13.8031C42.3943 14.2077 42.4345 14.6131 42.4693 15.0193C42.4874 15.2339 42.4764 15.2387 42.2767 15.1345C41.7382 14.8463 41.2183 14.5244 40.7203 14.1708C40.1789 13.7967 39.6485 13.4092 39.1355 12.998C38.979 12.8703 38.7903 12.7884 38.5901 12.7613C38.0051 12.6653 37.4047 12.7456 36.8654 12.992C36.3261 13.2384 35.8723 13.6397 35.5618 14.1448C35.4616 14.3074 35.4608 14.4139 35.6242 14.5134C35.6521 14.5323 35.6785 14.5534 35.7031 14.5765C36.0764 14.9001 36.0772 14.9009 35.8744 15.3657C35.846 15.4312 35.812 15.496 35.7789 15.5599C35.4869 16.1124 35.1175 16.5425 34.3961 16.3783C34.3365 16.3699 34.2762 16.3681 34.2162 16.3728ZM36.1293 9.48986L35.063 8.29337C34.9739 8.19314 34.9249 8.29337 34.8728 8.33599C34.333 8.80638 33.7942 9.27834 33.2565 9.75188C33.2107 9.79214 33.1428 9.81897 33.1333 9.90579L36.1293 9.48986Z" fill="#162D4C"/>
<path d="M34.056 26.059L33.3923 25.5855C31.596 24.3132 29.8007 23.0402 28.0065 21.7664C27.9493 21.7199 27.8803 21.6905 27.8072 21.6813C27.7341 21.6721 27.6599 21.6835 27.593 21.7143C26.2434 22.1878 24.889 22.6479 23.5434 23.1349C23.2632 23.2359 23.0138 23.1523 22.7541 23.1246C22.3485 23.082 22.3485 23.0773 22.4337 22.674C23.1125 19.4418 23.7915 16.2106 24.4707 12.9806C24.4786 12.9443 24.4881 12.9079 24.4968 12.8708C24.5757 12.889 24.5939 12.9537 24.6246 12.9987C26.1589 15.2772 28.3096 16.6158 30.978 17.1651C32.0028 17.3711 33.0455 17.4744 34.0908 17.4737C34.2486 17.4737 34.2897 17.5234 34.2983 17.6718C34.326 18.1177 34.367 18.5628 34.408 19.008C34.4257 19.1711 34.4124 19.336 34.3686 19.4941C34.2526 19.8982 34.1468 20.3047 34.03 20.708C34.0127 20.7597 34.0076 20.8147 34.0153 20.8687C34.023 20.9227 34.0431 20.9741 34.0742 21.019C34.7743 22.1468 35.4672 23.2778 36.1649 24.4064C36.2292 24.505 36.265 24.6194 36.2683 24.7371C36.288 25.3874 36.3133 26.0377 36.3401 26.6881C36.3449 26.786 36.3274 26.8837 36.2888 26.9738C35.9873 27.7085 35.6937 28.4465 35.3867 29.1789C35.2901 29.3943 35.2403 29.6278 35.2407 29.864C35.2407 30.0731 35.2202 30.2823 35.2083 30.4859C35.1499 30.5135 35.1247 30.4732 35.0971 30.4496C33.9921 29.5341 32.8951 28.6154 31.7894 27.7038C31.6599 27.5973 31.6662 27.5531 31.8051 27.467C32.4934 27.044 33.1768 26.6131 33.8611 26.1837C33.9187 26.1498 33.9732 26.1135 34.056 26.059Z" fill="#162D4C"/>
<path d="M27.7469 22.4625C27.8114 22.4691 27.8714 22.4989 27.9158 22.5462C28.9444 23.266 29.9728 23.985 31.0009 24.7032C31.1209 24.786 31.1509 24.861 31.1193 25.0094C30.8036 26.509 30.5068 28.0196 30.199 29.5238C30.1696 29.6511 30.1888 29.7848 30.2527 29.8987C30.3774 30.1355 30.4895 30.3794 30.6039 30.6177C30.5455 30.6817 30.4832 30.6564 30.4287 30.6564C29.173 30.6564 27.9173 30.6564 26.6609 30.6619C26.6069 30.6676 26.5525 30.6546 26.5069 30.625C26.4614 30.5954 26.4274 30.551 26.4107 30.4993C26.3199 30.2957 26.2221 30.0945 26.1116 29.9003C26.0776 29.8453 26.0584 29.7825 26.0559 29.7179C26.0534 29.6533 26.0677 29.5892 26.0974 29.5317C26.6198 28.2918 27.1344 27.0488 27.6553 25.8089C27.719 25.6592 27.7509 25.498 27.7492 25.3354C27.7437 24.3812 27.7469 23.4286 27.7469 22.4625Z" fill="#162D4C"/>
<path d="M45.122 17.9212C42.8001 17.9212 40.681 17.2267 38.711 16.027C38.0141 15.6041 37.3567 15.1194 36.7466 14.5788C36.6306 14.4762 36.633 14.4043 36.7214 14.2915C37.1997 13.679 37.8421 13.5086 38.5816 13.5867C38.8407 13.6176 39.0863 13.7189 39.2919 13.8795C40.8767 15.0444 42.5902 15.9513 44.5127 16.4287C45.5924 16.6953 46.7095 16.777 47.8165 16.6703C48.0777 16.6466 48.3421 16.6513 48.6057 16.6537C48.7147 16.6537 48.8425 16.6632 48.893 16.7831C48.9475 16.9181 48.863 17.0199 48.7699 17.1122C48.5734 17.2879 48.3406 17.418 48.088 17.4934C47.2672 17.7776 46.4156 17.8841 45.553 17.9188C45.4109 17.9259 45.2665 17.9212 45.122 17.9212Z" fill="#162D4C"/>
<path d="M39.2453 17.0704C40.0194 17.5178 40.85 17.8594 41.7148 18.0862C41.9303 18.1444 42.149 18.1897 42.3699 18.2219C42.5001 18.2393 42.5167 18.2945 42.504 18.4019C42.4793 18.7294 42.4061 19.0515 42.287 19.3576C41.8206 20.4429 41.287 21.4989 40.838 22.5935C40.6509 23.0489 40.4575 23.5019 40.3644 23.9881C40.2555 24.5406 40.6383 24.9423 41.1955 24.8421C41.3454 24.8152 41.3904 24.8515 41.418 24.9905C41.4591 25.2099 41.4811 25.4325 41.4836 25.6558C41.4882 25.7079 41.4761 25.7601 41.4492 25.8049C41.4222 25.8497 41.3818 25.8848 41.3336 25.9052C40.714 26.2248 40.1245 26.1104 39.5878 25.7347C39.0188 25.3361 38.7986 24.7316 38.7654 24.0607C38.7212 23.2304 38.8309 22.4081 38.9383 21.5865C39.0772 20.532 39.3029 19.4902 39.4071 18.4295C39.441 18.0838 39.3281 17.7539 39.2974 17.4145C39.2847 17.3104 39.2658 17.2054 39.2453 17.0704Z" fill="#162D4C"/>
<path d="M36.1294 9.48984L33.1302 9.90577C33.1397 9.81895 33.2092 9.79212 33.2534 9.75187C33.7906 9.27832 34.3294 8.80636 34.8697 8.33597C34.9218 8.29099 34.9708 8.19312 35.0599 8.29335L36.1294 9.48984Z" fill="#DCAA10"/>
</svg>
