<svg width="94" height="51" viewBox="0 0 94 51" fill="none" xmlns="http://www.w3.org/2000/svg">
<path fill-rule="evenodd" clip-rule="evenodd" d="M44.5993 0.686064C43.8255 1.09374 43.041 1.34961 42.7412 1.29219C42.1039 1.17023 42.0794 1.38773 42.6697 1.92266C43.0662 2.2821 43.0804 2.38408 42.7958 2.81955C42.3149 3.55567 42.1312 5.13081 42.4273 5.98108C42.6284 6.55896 42.6215 6.76957 42.397 6.92162C41.9235 7.24202 40.5323 6.92208 40.101 6.39336C39.5896 5.76656 39.5864 4.49276 40.0941 3.63193C40.4794 2.97872 40.4752 2.94978 39.9154 2.38913C38.6165 1.08823 37.0073 1.2768 35.3662 2.92176C33.6488 4.64366 32.5985 7.29186 32.5932 9.91434C32.5904 11.2442 32.7264 11.4663 33.2326 10.9594C33.9799 10.2109 33.2771 13.6294 32.1265 16.3366C31.7465 17.2317 31.4754 18.0041 31.5245 18.0532C31.88 18.409 35.6834 15.9096 37.3949 14.1956C38.1379 13.4514 38.8101 12.8427 38.889 12.8427C38.9679 12.8427 38.9626 13.2153 38.8773 13.6707C38.7275 14.4712 38.7392 14.4898 39.2311 14.2261C40.2418 13.6843 41.5469 12.3062 41.9819 11.3216C42.5436 10.0496 42.7665 10.0386 42.5626 11.2924C42.2452 13.244 40.7802 15.4632 38.9245 16.8036C38.5613 17.0659 37.4809 17.6214 36.5237 18.0381L34.7835 18.7958L35.923 19.3018C36.6131 19.6082 37.7185 19.8503 38.7266 19.9155C40.3906 20.0234 40.3913 20.0232 41.1598 19.2072L41.9283 18.3909L42.2193 19.6059C42.4947 20.7556 42.4812 20.8622 41.9656 21.5974C41.6661 22.0249 41.4063 22.4061 41.3882 22.4452C41.3699 22.484 40.3376 22.7238 39.094 22.978C36.5244 23.5033 32.9145 24.8494 30.476 26.1919C28.0217 27.5431 24.6547 30.2007 23.4345 31.7499C23.1313 32.1349 23.1561 32.153 23.7785 32.001C24.1475 31.9109 25.0719 31.554 25.8328 31.2081C30.7989 28.9499 37.0518 27.169 41.9874 26.6069C44.71 26.2969 51.1881 26.4347 53.3447 26.8488C58.634 27.864 60.8461 28.579 67.8757 31.5448C68.6782 31.8836 69.3937 32.1018 69.4652 32.0299C69.8021 31.6925 65.5453 28.0888 63.2059 26.7307C59.6701 24.6781 56.3412 23.4179 52.8232 22.8007C51.0407 22.4881 50.4414 22.2791 49.8394 21.7603C49.4253 21.4033 48.935 21.1112 48.7501 21.1112C48.2621 21.1112 48.3366 20.4182 48.9756 19.0145C49.5798 17.686 50.0149 15.4645 50.0176 13.6923L50.0195 12.5896L50.7863 13.1756C51.9979 14.1009 52.3322 13.9783 52.1614 12.6705C52.083 12.0703 52.0747 11.6312 52.1431 11.6943C52.2112 11.7575 52.7877 12.5906 53.4239 13.5453C54.6138 15.3313 56.4019 16.9437 58.218 17.8681C59.2871 18.4125 59.3564 18.3222 58.853 17.039C58.3705 15.8084 57.5908 12.4059 57.5889 11.5221C57.5873 10.797 57.8728 10.5391 58.1607 11.0053C58.8562 12.1323 58.9372 9.1858 58.27 7.02314C57.6628 5.05341 56.1293 2.77913 54.95 2.09859C53.611 1.32595 51.8605 1.47593 50.8916 2.44655C50.2197 3.11951 50.2057 3.17188 50.5634 3.68314C51.0361 4.35909 51.0443 5.69651 50.5797 6.36051C50.1587 6.96273 49.5608 7.03531 49.5608 6.48431C49.5608 5.8311 48.6857 4.24816 48.1339 3.90318C47.8466 3.72357 47.3054 3.51341 46.9313 3.43601L46.2511 3.29545L46.7832 2.76259C47.1866 2.35859 47.476 2.26189 47.9794 2.36272C48.5547 2.47802 48.6435 2.42657 48.6435 1.97824C48.6435 1.69367 48.4628 1.29012 48.2422 1.08157C48.0215 0.872793 47.7078 0.539758 47.5452 0.341316C47.0925 -0.210603 46.0752 -0.0913998 44.5993 0.686064ZM45.8915 17.5188C45.8915 17.6906 46.2011 18.412 46.5795 19.1222C46.9579 19.8323 47.2675 20.5108 47.2675 20.6298C47.2675 20.749 46.996 21.1695 46.6639 21.5646L46.0606 22.2828L45.5746 21.8289C45.3074 21.5793 44.8041 21.3041 44.4562 21.2175C44.108 21.1312 43.7624 20.9617 43.6879 20.8411C43.6136 20.7205 43.9757 20.0179 44.4929 19.2797C45.0098 18.5415 45.4329 17.773 45.4329 17.5721C45.4329 17.3711 45.5361 17.2066 45.6622 17.2066C45.7883 17.2066 45.8915 17.3472 45.8915 17.5188ZM48.1238 35.8194C46.0399 36.3389 44.4298 37.6598 43.6076 39.5239C41.776 43.6774 43.2676 48.225 47.0045 49.8806C48.4323 50.5131 51.4911 50.3627 53.0581 49.5827L54.1474 49.0404V45.6411V42.2417H52.0644C50.9187 42.2417 50.0206 42.3191 50.0688 42.4139C51.179 44.6012 51.4163 45.3008 51.3516 46.1965L51.2808 47.1798L49.8959 47.2468C48.1786 47.3302 47.1717 46.7491 46.4075 45.2344C45.8415 44.1124 45.7184 42.2711 46.1355 41.1656C46.6885 39.7 48.3252 38.5668 49.8894 38.5668C50.8744 38.5668 52.6691 39.1562 53.5167 39.7579L54.1474 40.2058V38.6107C54.1474 37.5597 54.0428 36.9283 53.841 36.7606C52.8849 35.9659 49.6631 35.4354 48.1238 35.8194ZM61.7139 35.7955C58.8872 36.6568 57.1294 39.0843 56.948 42.3774C56.8177 44.7452 57.2759 46.3993 58.4874 47.9343C60.0843 49.9577 62.6278 50.7577 65.194 50.0439C66.4055 49.7067 68.2284 47.9655 68.985 46.4225C69.5549 45.2599 69.6262 44.8662 69.6189 42.9188C69.6115 40.997 69.5317 40.5632 68.9754 39.4242C67.5856 36.5796 64.3869 34.9813 61.7139 35.7955ZM0.368991 36.8782C0.571947 37.3649 0.988638 38.025 1.29502 38.3454C1.84977 38.9256 1.85206 38.9488 1.91352 44.5467L1.97498 50.1656L4.75491 50.1507C8.07789 50.1327 9.23371 49.7772 10.8303 48.2813C13.6245 45.6636 13.7297 40.786 11.0498 38.1019C9.44699 36.4967 8.44872 36.2186 3.85411 36.0961L0 35.9935L0.368991 36.8782ZM19.3696 36.3164C18.9286 36.9039 13.0358 50.0654 13.1585 50.1883C13.3701 50.4003 14.9431 49.8727 15.7496 49.3192C16.1695 49.0312 16.7314 48.406 16.9986 47.9301C17.4047 47.2064 17.6061 47.0649 18.2303 47.0649C19.4359 47.0649 21.1731 47.6832 22.6463 48.6368C23.9362 49.472 26.3096 50.446 26.5261 50.2292C26.5799 50.1755 25.9635 48.6403 25.1563 46.818C24.3493 44.9957 22.9632 41.8512 22.0759 39.83C20.8857 37.1184 20.3491 36.1372 20.028 36.0867C19.7888 36.0491 19.4925 36.1524 19.3696 36.3164ZM28.4625 43.1714V50.3022L29.8958 50.234L31.3291 50.1656L31.4438 46.4136L31.5585 42.6613L33.7447 44.691C34.9468 45.8072 36.7945 47.5215 37.8506 48.5004C38.9064 49.4793 39.8577 50.2804 39.9643 50.2804C40.0709 50.2804 40.1583 47.0764 40.1583 43.1604V36.0403H38.6677H37.177V39.7343C37.177 41.9084 37.0894 43.3969 36.9642 43.3517C36.847 43.3097 34.9858 41.6475 32.8278 39.6578C30.6698 37.6681 28.8049 36.0403 28.6834 36.0403C28.5464 36.0403 28.4625 38.7531 28.4625 43.1714ZM71.2115 36.3566C71.1448 36.5305 71.1223 37.1766 71.1613 37.7921L71.2324 38.9113L73.2391 38.9777L75.2457 39.0441V44.6733V50.3022L76.679 50.234L78.1123 50.1656L78.1738 44.5959L78.2352 39.0262H80.1804H82.1256V37.5332V36.0403H76.7292C72.358 36.0403 71.3097 36.1005 71.2115 36.3566ZM84.7521 36.3302C84.6911 36.4893 84.6686 39.6676 84.7021 43.3928L84.7628 50.1656L88.9481 50.2283L93.1334 50.2908V48.7928V47.2946H90.3814H87.6295V45.9411C87.6295 44.3104 87.6324 44.3088 90.4002 44.3088H92.4454V42.9307V41.5526H90.0374H87.6295V40.2894V39.0262L89.6361 39.0227C90.7713 39.0209 91.8821 38.8962 92.194 38.7356C92.8742 38.3856 93.5225 37.5096 93.7211 36.6719L93.8711 36.0403H89.3671C85.9535 36.0403 84.8362 36.1104 84.7521 36.3302ZM64.3133 38.8801C66.1587 39.6523 67.0962 42.116 66.4248 44.4294C65.7907 46.6141 64.1377 47.6761 62.3111 47.0723C59.2695 46.067 59.0378 40.4077 61.9788 38.9563C62.9215 38.4912 63.3504 38.4772 64.3133 38.8801ZM7.82976 39.5429C9.28141 40.2774 9.88684 41.2873 9.88684 42.9739C9.88684 45.5506 8.41707 47.0649 5.91578 47.0649H4.8416V43.0455V39.0262H5.82496C6.38934 39.0262 7.24359 39.2464 7.82976 39.5429ZM20.7749 43.0821C21.2212 44.0495 21.545 44.8823 21.4946 44.933C21.4166 45.0109 18.8261 44.3453 18.6591 44.2045C18.5883 44.1448 19.7968 41.3229 19.8932 41.3229C19.9319 41.3229 20.3287 42.1144 20.7749 43.0821Z" fill="white"/>
</svg>
