<svg width="101" height="25" viewBox="0 0 101 25" fill="none" xmlns="http://www.w3.org/2000/svg">
<path fill-rule="evenodd" clip-rule="evenodd" d="M11.489 1.1618C10.2264 2.44823 10.4387 2.71877 12.7108 2.71877C14.9978 2.71877 15.1907 2.44846 13.8171 1.16914C13.2225 0.615395 12.6761 0.162354 12.603 0.162354C12.5298 0.162354 12.0285 0.61206 11.489 1.1618ZM8.05765 4.59296L6.97818 5.68888L8.01853 6.34866C10.599 7.98521 13.6913 8.12481 16.5096 6.7319C17.4157 6.28419 18.1571 5.84449 18.1571 5.7549C18.1571 5.66532 17.6751 5.11713 17.086 4.53716L16.0152 3.48214L15.0298 3.92918C13.7231 4.52204 11.7053 4.52516 10.408 3.93651C9.87493 3.69465 9.37098 3.49681 9.28807 3.49681C9.20515 3.49681 8.65141 3.99009 8.05765 4.59296ZM4.69986 7.95097C4.06053 8.6003 3.69041 9.13782 3.81912 9.23052C5.45811 10.41 7.10578 11.3361 8.23327 11.7114C11.1949 12.6968 14.5278 12.6601 17.379 11.6107C19.0349 11.0011 21.3804 9.5524 21.3804 9.13937C21.3804 9.00288 20.9484 8.42269 20.4207 7.85005L19.4613 6.80903L18.4436 7.48304C16.5956 8.70723 15.1603 9.1327 12.8219 9.14982C10.4258 9.16738 9.20026 8.83238 7.15513 7.60086C6.452 7.1776 5.86025 6.83126 5.8398 6.83126C5.81957 6.83126 5.30651 7.33521 4.69986 7.95097ZM1.4292 11.2625C0.848562 11.8643 0.373291 12.4056 0.373291 12.4652C0.373291 12.7759 3.38386 14.7875 4.93038 15.5102C7.67641 16.7933 9.36254 17.149 12.7108 17.1514C15.036 17.1532 15.939 17.0571 17.3321 16.659C19.6833 15.9872 21.512 15.1127 23.4615 13.7274L25.0983 12.5643L23.9352 11.3868L22.7722 10.2091L21.7429 10.9993C20.4449 11.9959 17.9999 13.1609 16.2675 13.6084C14.4807 14.0701 11.0153 14.0673 9.1109 13.6027C7.27717 13.1552 4.6534 11.8921 3.49101 10.8971C3.02129 10.4947 2.60271 10.1662 2.56092 10.1668C2.51912 10.1675 2.00984 10.6606 1.4292 11.2625ZM9.04043 21.1399L12.7059 24.8373L16.3127 21.2354C18.2964 19.2546 19.8816 17.5958 19.8354 17.5495C19.7892 17.5033 19.5675 17.56 19.3432 17.6754C17.201 18.7766 10.8221 19.0863 7.82024 18.2347C6.9644 17.9919 6.06409 17.7143 5.81957 17.6178C5.57504 17.5213 7.02442 19.1063 9.04043 21.1399Z" fill="white"/>
<path d="M31.1392 20.1691V4.60828H37.9414C39.6309 4.60828 41.1129 4.93432 42.3874 5.58639C43.6619 6.23846 44.6548 7.14247 45.3662 8.29841C46.0775 9.45436 46.4332 10.8178 46.4332 12.3887C46.4332 13.9448 46.0775 15.3082 45.3662 16.4789C44.6548 17.6349 43.6619 18.5389 42.3874 19.191C41.1129 19.843 39.6309 20.1691 37.9414 20.1691H31.1392ZM34.029 17.7238H37.8081C38.9788 17.7238 39.9866 17.5015 40.8313 17.0569C41.6909 16.6123 42.3503 15.9899 42.8098 15.1896C43.284 14.3894 43.5211 13.4557 43.5211 12.3887C43.5211 11.3068 43.284 10.3732 42.8098 9.58774C42.3503 8.78747 41.6909 8.16504 40.8313 7.72044C39.9866 7.27585 38.9788 7.05355 37.8081 7.05355H34.029V17.7238Z" fill="white"/>
<path d="M56.7961 20.3914C55.5808 20.3914 54.4619 20.1913 53.4394 19.7912C52.4168 19.391 51.5276 18.8353 50.7718 18.1239C50.016 17.3978 49.4306 16.553 49.0157 15.5898C48.6007 14.6116 48.3932 13.5446 48.3932 12.3887C48.3932 11.2327 48.6007 10.1731 49.0157 9.20983C49.4306 8.23172 50.016 7.387 50.7718 6.67565C51.5276 5.94948 52.4168 5.38632 53.4394 4.98619C54.4619 4.58605 55.5734 4.38599 56.7738 4.38599C57.9891 4.38599 59.1005 4.58605 60.1083 4.98619C61.1308 5.38632 62.02 5.94948 62.7758 6.67565C63.5317 7.387 64.117 8.23172 64.532 9.20983C64.9469 10.1731 65.1544 11.2327 65.1544 12.3887C65.1544 13.5446 64.9469 14.6116 64.532 15.5898C64.117 16.5679 63.5317 17.4126 62.7758 18.1239C62.02 18.8353 61.1308 19.391 60.1083 19.7912C59.1005 20.1913 57.9965 20.3914 56.7961 20.3914ZM56.7738 17.8572C57.5593 17.8572 58.2854 17.7238 58.9523 17.4571C59.6192 17.1903 60.1972 16.8124 60.6863 16.3233C61.1753 15.8195 61.5532 15.2415 61.82 14.5894C62.1015 13.9225 62.2423 13.1889 62.2423 12.3887C62.2423 11.5884 62.1015 10.8622 61.82 10.2102C61.5532 9.54328 61.1753 8.9653 60.6863 8.47625C60.1972 7.97238 59.6192 7.58706 58.9523 7.32031C58.2854 7.05355 57.5593 6.92017 56.7738 6.92017C55.9884 6.92017 55.2622 7.05355 54.5953 7.32031C53.9432 7.58706 53.3653 7.97238 52.8614 8.47625C52.3723 8.9653 51.987 9.54328 51.7055 10.2102C51.4387 10.8622 51.3053 11.5884 51.3053 12.3887C51.3053 13.1741 51.4387 13.9003 51.7055 14.5672C51.987 15.2341 52.3723 15.8195 52.8614 16.3233C53.3505 16.8124 53.9284 17.1903 54.5953 17.4571C55.2622 17.7238 55.9884 17.8572 56.7738 17.8572Z" fill="white"/>
<path d="M68.2176 20.1691V4.60828H70.5962L77.3985 15.9677H76.1536L82.8447 4.60828H85.2233L85.2456 20.1691H82.5113L82.4891 8.89862H83.067L77.3762 18.3907H76.0869L70.3072 8.89862H70.9741V20.1691H68.2176Z" fill="white"/>
<path d="M89.4487 20.1691V4.60828H92.3386V17.7238H100.475V20.1691H89.4487Z" fill="white"/>
<rect x="41.9429" y="10.8325" width="10.6703" height="3.11216" rx="1.55608" fill="url(#paint0_linear_0_7)"/>
<defs>
<linearGradient id="paint0_linear_0_7" x1="53.28" y1="10.1656" x2="40.6091" y2="14.167" gradientUnits="userSpaceOnUse">
<stop stop-color="#FF2DF7"/>
<stop offset="1" stop-color="#00E0FF"/>
</linearGradient>
</defs>
</svg>
